<?xml version="1.0" encoding="UTF-8"?>
<svg width="128pt" height="128pt" version="1.1" viewBox="0 0 128 128" xmlns="http://www.w3.org/2000/svg">
 <path d="m118.91 71.297-5.6055-4.043c-0.53906-0.38281-0.84375-1.0234-0.82031-1.6914 0.027344-0.51172 0.027344-1.0234 0.027344-1.5352v-0.79297c0-0.64062 0.30859-1.2539 0.82031-1.6367 1.6133-1.1758 4.043-2.918 5.7617-4.1719 1.9219-1.4062 2.8398-3.8125 2.3281-6.1445-0.74219-3.25-1.7656-6.3984-3.0195-9.4219v-0.027344c-0.94531-2.2031-3.0977-3.6367-5.4766-3.6367-2.0977 0-5.0703-0.027343-7.0391-0.027343-0.66406 0-1.2812-0.33203-1.6367-0.87109-0.51172-0.74219-1.0508-1.4609-1.5859-2.1758-0.41016-0.53906-0.53906-1.2305-0.33203-1.8438 0.61328-1.8672 1.4844-4.6094 2.125-6.5781 0.74219-2.2773 0.050781-4.7891-1.7656-6.375-2.4844-2.1523-5.1719-4.0703-7.9883-5.7852h-0.027344c-2.0469-1.2031-4.6094-1.1016-6.5273 0.25781-1.7148 1.2031-4.1211 2.918-5.7344 4.043-0.53906 0.38281-1.2305 0.46094-1.8438 0.25781-0.94531-0.33203-1.8945-0.64062-2.8672-0.92188-0.64062-0.17969-1.125-0.66406-1.3555-1.2812-0.61328-1.8672-1.5352-4.582-2.2031-6.5547-0.76953-2.2539-2.7891-3.8672-5.1719-4.0703-1.6367-0.12891-3.2773-0.20312-4.9414-0.20312s-3.3008 0.078125-4.9414 0.20312c-2.3789 0.20312-4.4297 1.793-5.1953 4.0703-0.66406 1.9727-1.5859 4.6836-2.2031 6.5547-0.20312 0.61328-0.71875 1.1016-1.3555 1.2812-0.97266 0.28125-1.9219 0.58984-2.8672 0.92188-0.61328 0.23047-1.3047 0.12891-1.8438-0.25781-1.6133-1.1523-4.0195-2.8398-5.7344-4.0703-1.9219-1.3555-4.4805-1.4609-6.5273-0.25781-2.8398 1.7148-5.5039 3.6367-8.0117 5.7852v0.027344c-1.8164 1.5859-2.5078 4.0977-1.7656 6.375 0.64062 1.9727 1.5352 4.7109 2.125 6.5781 0.20312 0.64062 0.078124 1.3047-0.33203 1.8438-0.53906 0.71875-1.0742 1.4336-1.5859 2.1758-0.35938 0.53906-0.97266 0.87109-1.6367 0.87109-1.9961 0-4.9414 0.027343-7.0391 0.050781-2.3789 0-4.5312 1.4336-5.4766 3.6367v0.027343c-1.2812 3.0195-2.3047 6.168-3.0469 9.4219v0.027343c-0.51172 2.3281 0.41016 4.7617 2.3555 6.168l5.7617 4.1484c0.53906 0.38281 0.84375 1 0.82031 1.6367v0.79297l0.027344 1.5352c0.027344 0.66406-0.28125 1.2812-0.82031 1.6914-1.5859 1.1523-3.918 2.8398-5.6055 4.0703-1.9453 1.4062-2.8672 3.8672-2.3047 6.2461 0.79297 3.3008 1.8945 6.5039 3.2266 9.5469v0.027343c0.97266 2.1523 3.0977 3.5312 5.4531 3.5312 2.1523 0 5.2461 0.027344 7.2695 0.027344 0.64062 0 1.2539 0.30859 1.6133 0.84375 0.41016 0.5625 0.79297 1.1016 1.2305 1.6367 0.41016 0.51172 0.53906 1.2305 0.33203 1.8438-0.58984 1.8438-1.4844 4.5586-2.0977 6.5273-0.74219 2.2773-0.050781 4.8125 1.793 6.375 2.6367 2.2266 5.4531 4.25 8.4727 6.0156h0.027344c2.0234 1.1758 4.5586 1.0508 6.4766-0.30859 1.7422-1.2305 4.2227-2.9961 5.8633-4.1484 0.33203-0.25781 0.74219-0.35937 1.1523-0.35937 0.23047 0 0.43359 0.027343 0.64062 0.10156 0.61328 0.20312 1.2305 0.41016 1.8438 0.58984 0.61328 0.17969 1.125 0.66406 1.332 1.2812 0.61328 1.8672 1.5625 4.6328 2.2266 6.6289 0.76953 2.2539 2.7656 3.8398 5.1445 4.0703 1.7422 0.15234 3.4805 0.23047 5.2461 0.23047s3.5078-0.078125 5.2461-0.23047h0.027344c2.3789-0.20312 4.4023-1.8164 5.1445-4.0703 0.66406-1.9727 1.5859-4.7617 2.2266-6.6055 0.20312-0.61328 0.71875-1.1016 1.332-1.2812 0.61328-0.17969 1.2305-0.38281 1.8438-0.58984 0.61328-0.20313 1.2812-0.10156 1.793 0.25781 1.6367 1.1758 4.1211 2.918 5.8867 4.1484 1.8945 1.3555 4.4297 1.4609 6.4531 0.30859h0.027344c2.9961-1.7656 5.8359-3.7617 8.4727-5.9922 1.8438-1.5859 2.5352-4.0977 1.793-6.3984-0.64062-1.9453-1.5117-4.6602-2.0977-6.5039-0.20312-0.64062-0.078125-1.332 0.33203-1.8438 0.41016-0.53906 0.82031-1.0742 1.2305-1.6367 0.38281-0.51172 0.97266-0.84375 1.6133-0.84375 2.0234 0 5.1211-0.027343 7.2695-0.050781 2.3281 0 4.4805-1.3828 5.4258-3.5312 1.3555-3.0469 2.4336-6.2461 3.25-9.5469v-0.027344c0.46094-2.4844-0.46094-4.9414-2.4336-6.3477zm-54.91 17.613c-13.746 0-24.91-11.16-24.91-24.91 0-13.746 11.16-24.91 24.91-24.91 13.746 0 24.91 11.16 24.91 24.91 0 13.746-11.164 24.91-24.91 24.91z"/>
</svg>
