<?xml version="1.0" encoding="UTF-8"?>
<svg width="128pt" height="128pt" version="1.1" viewBox="0 0 128 128" xmlns="http://www.w3.org/2000/svg">
 <path d="m80.199 65.199c0 1.3984-0.19922 2.8008-0.19922 4.6016 0 3.8008-1.3984 7.3984-3.8008 10.199-6.6016 6.8008-13.398 8-21.602 3.6016-6.6016-3.3984-9.6016-15.199-7.3984-22.602 0.19922-0.60156 0.39844-1 0.60156-1.6016 1.3984 2 3 4 4.8008 6 0.60156 0.80078 2 1 2.8008 0.39844 0.80078-0.60156 1-1.6016 0.60156-2.3984-0.19922-0.60156-4.1992-14 9.8008-23.602-0.39844 3.6016-0.80078 8 0 9.8008 1.1992 2.8008 2.8008 3.3984 4 3.3984 1.6016-0.19922 3-1 3.8008-2.3984 1.3984 3.3984 3 9 0.19922 12.602-0.60156 0.80078-0.39844 2.1992 0.39844 2.8008 0.39844 0.39844 2.5977 1.6016 5.9961-0.80078zm31 7.1992-40.801 41c-3.6016 3.6016-9.1992 3.6016-12.602 0l-40.996-41c-13.402-13.398-14.602-34.598-2.4023-48.398 6.3984-7.3984 15.398-11.602 25.199-12 9-0.19922 17.801 3 24.398 8.8008 14.398-12.801 36.602-11.602 49.398 2.8008l0.19922 0.19922c12.207 14 11.008 35.199-2.3945 48.598zm-27-12.398c0-1.1992-1-2-2.1992-1.8008-0.60156 0-1.1992 0.39844-1.6016 0.80078-0.39844 0.80078-1 1.3984-1.6016 2 1.3984-7.1992-3.3984-15.199-3.6016-15.602-0.39844-0.60156-1.1992-1-1.8008-1-0.80078 0-1.3984 0.60156-1.6016 1.1992-0.39844 1.1992-1.1992 2.3984-2 3.1992-0.19922-0.19922-0.19922-0.60156-0.39844-0.80078-0.60156-1.1992 0.19922-7 1-11.801 0.19922-1-0.60156-2.1992-1.6016-2.3984-0.39844 0-1 0-1.3984 0.19922-13 6.8008-15.801 16.801-16.199 23.398-0.80078-1-1.3984-2.1992-2-3.3984-0.19922-1-1.1992-1.8008-2.3984-1.6016-0.60156 0.19922-1.1992 0.60156-1.3984 1.1992-0.80078 2-1.6016 3.8008-2.1992 5.8008-2.8008 9 0.80078 22.801 9.3984 27.199 3.3984 1.8008 7 3 11 3 6-0.19922 11.602-2.8008 15.398-7.3984 3-3.6016 4.8008-8 4.8008-12.602 0.40234-2.9922 0.60156-6.1953 0.40234-9.5938z"/>
</svg>
