<?xml version="1.0" encoding="UTF-8"?>
<svg width="128pt" height="128pt" version="1.1" viewBox="0 0 128 128" xmlns="http://www.w3.org/2000/svg">
 <path d="m97.84 28v-20.84l22.781 22.84h-20.781c-1.1055 0-2-0.89453-2-2zm-47.84 90c-0.30859 1.3438-0.14844 2.7617 0.46094 4h-18.461c-3.3164 0-6-2.6836-6-6v-104c0-3.3164 2.6836-6 6-6h61.801v22c0 3.3164 2.6836 6 6 6h22v18.48l-0.98047-0.98047c-3.9062-3.9062-10.234-3.9062-14.141 0l-2.8398 2.8398-49.52 49.48c-0.76172 0.78125-1.3047 1.7461-1.5781 2.8008zm-10.219-96c0 0.53125 0.21094 1.0391 0.58594 1.4141s0.88672 0.58594 1.4141 0.58594h30.98c1.1055 0 2-0.89453 2-2s-0.89453-2-2-2h-30.98c-1.1055 0-2 0.89453-2 2zm0 18c0 0.53125 0.21094 1.0391 0.58594 1.4141s0.88672 0.58594 1.4141 0.58594h46c1.1055 0 2-0.89453 2-2s-0.89453-2-2-2h-46c-1.1055 0-2 0.89453-2 2zm0 18c0 0.53125 0.21094 1.0391 0.58594 1.4141s0.88672 0.58594 1.4141 0.58594h46c1.1055 0 2-0.89453 2-2s-0.89453-2-2-2h-46c-1.1055 0-2 0.89453-2 2zm32.98 20c1.1055 0 2-0.89453 2-2s-0.89453-2-2-2h-30.98c-1.1055 0-2 0.89453-2 2s0.89453 2 2 2zm-1.4609 42.801c-0.54688 0.50391-1.1758 0.91406-1.8594 1.1992h46.34c3.3164 0 6-2.6836 6-6v-45.68zm-10.879-17.379-3.2617 3.2383c-0.25391 0.25391-0.44141 0.57422-0.53906 0.92188l-2.8203 11.32c-0.17188 0.67969 0.023438 1.3984 0.51953 1.8984 0.375 0.375 0.89063 0.58594 1.4219 0.57812 0.16016 0.019532 0.32031 0.019532 0.48047 0l11.32-2.8203c0.35156-0.089844 0.66406-0.26562 0.92188-0.51953l3.2617-3.2617zm2.8203-2.8398 11.32 11.422 42.16-42.262-11.32-11.32zm57.559-34.941c2.3398-2.3438 2.3398-6.1367 0-8.4805l-2.8008-2.8203c-2.3438-2.3398-6.1367-2.3398-8.4805 0l-1.2383 1.2617 11.301 11.301zm-98.801-44.922-11.66 2c-3.2539 0.58984-5.4219 3.6992-4.8398 6.9609l15.32 86.641c0.24609 1.3398 0.95313 2.5508 2 3.4219-0.51562-1.1797-0.79687-2.4492-0.82031-3.7383z"/>
</svg>
