<?xml version="1.0" encoding="UTF-8"?>
<svg width="128pt" height="128pt" version="1.1" viewBox="0 0 128 128" xmlns="http://www.w3.org/2000/svg">
 <path d="m121.4 65.398c0.80078-0.80078 0.80078-2 0-2.8008l-8.8008-8.1992c-1.6016-1.6016-2.1992-4-1.6016-6l3.3984-11.602c0.19922-0.60156 0-1-0.19922-1.6016-0.19922-0.39844-0.80078-0.80078-1.1992-1l-11.801-2.8008c-2.1992-0.60156-4-2.1992-4.3984-4.3984l-2.7969-11.996c-0.19922-0.60156-0.39844-1-1-1.1992-0.39844-0.19922-1-0.39844-1.6016-0.19922l-11.602 3.3984c-2.1992 0.60156-4.6016 0-6-1.6016l-8.3984-8.8008c-0.80078-0.80078-2.1992-0.80078-3 0l-8.1992 8.8008c-1.6016 1.6016-4 2.1992-6 1.6016l-11.602-3.3984c-0.60156-0.19922-1 0-1.6016 0.19922-0.39453 0.19922-0.79688 0.80078-0.99609 1.1992l-2.8008 11.801c-0.60156 2.1992-2.1992 4-4.3984 4.3984l-11.801 2.8008c-0.60156 0.19922-1 0.39844-1.1992 1-0.19922 0.39844-0.39844 1-0.19922 1.6016l3.3984 11.602c0.60156 2.1992 0 4.6016-1.6016 6l-8.8008 8.1992c-0.80078 0.80078-0.80078 2 0 2.8008l8.8008 8.3984c1.6016 1.6016 2.1992 4 1.6016 6l-3.3984 11.602c-0.19922 0.60156 0 1 0.19922 1.6016 0.19922 0.59375 0.80078 0.99609 1.1992 1.1953l11.801 2.8008c2.1992 0.60156 4 2.1992 4.3984 4.3984l2.8008 11.801c0.19922 0.60156 0.39844 1 1 1.1992 0.39844 0.19922 1 0.39844 1.6016 0.19922l11.602-3.3984c2.1992-0.60156 4.6016 0 6 1.6016l8.1992 8.8008c0.80078 0.80078 2 0.80078 2.8008 0l8.3984-8.8008c1.6016-1.6016 4-2.1992 6-1.6016l11.602 3.3984c0.60156 0.19922 1 0 1.6016-0.19922 0.39844-0.19922 0.80078-0.80078 1-1.1992l2.8008-11.801c0.60156-2.1992 2.1992-4 4.3984-4.3984l11.801-2.8008c0.60156-0.19922 1-0.39844 1.1992-1 0.19922-0.39844 0.39844-1 0.19922-1.6016l-3.3984-11.602c-0.60156-2.1992 0-4.6016 1.6016-6zm-23.398-1.3984c0 18.801-15.199 34-34 34s-34-15.199-34-34 15.199-34 34-34 34 15.199 34 34zm-4 0c0 16.602-13.398 30-30 30s-30-13.398-30-30 13.398-30 30-30 30 13.398 30 30z"/>
</svg>
