<?xml version="1.0" encoding="UTF-8"?>
<svg width="128pt" height="128pt" version="1.1" viewBox="0 0 128 128" xmlns="http://www.w3.org/2000/svg">
 <path d="m62.582 104.48v14.941c0 1.4219-1.1602 2.5781-2.5781 2.5781h-7.7188v-5.1406c0-1.4219-1.1602-2.5781-2.5781-2.5781-1.4219 0-2.5781 1.1602-2.5781 2.5781v5.1406h-25.699v-5.1406c0-1.4219-1.1602-2.5781-2.5781-2.5781-1.4219 0-2.5781 1.1602-2.5781 2.5781v5.1406h-7.7188c-1.4219 0-2.5781-1.1602-2.5781-2.5781v-14.941c0-10.199 8.2812-18.48 18.48-18.48h19.598c10.199 0 18.48 8.2812 18.48 18.48zm-28.281-23.641c8.5 0 15.422-6.9219 15.422-15.422s-6.9219-15.422-15.422-15.422-15.422 6.9219-15.422 15.422 6.9219 15.422 15.422 15.422zm87.699-61.441v69.141c0 7.3789-6 13.398-13.398 13.398h-42.16c-1.2617-11.102-10.641-19.762-22.02-19.941 5.5781-3.4219 9.3008-9.5781 9.3008-16.578s-3.9219-13.441-9.7188-16.82v-29.199c0-7.3984 6-13.398 13.398-13.398h51.199c7.3984 0 13.398 6 13.398 13.398zm-51.539 17.84c0 6.9219 5.6211 12.539 12.539 12.539 6.9219 0 12.539-5.6211 12.539-12.539 0-6.9219-5.6211-12.539-12.539-12.539-6.9219 0-12.539 5.6211-12.539 12.539zm35.539 31.758c0-8.3008-6.7383-15.039-15.039-15.039h-15.922c-8.3008 0-15.039 6.7383-15.039 15.039v12.16c0 1.1406 0.94141 2.0781 2.1016 2.0781h6.2617v-4.1797c0-1.1406 0.94141-2.1016 2.1016-2.1016s2.0781 0.96094 2.0781 2.1016v4.1797h20.922v-4.1797c0-1.1406 0.94141-2.1016 2.0781-2.1016 1.1406 0 2.1016 0.96094 2.1016 2.1016v4.1797h6.2617c1.1602 0 2.1016-0.94141 2.1016-2.0781zm-62 13.258c0.14062-0.078125 0.28125-0.17969 0.42188-0.26172h-0.42188z"/>
</svg>
