<?xml version="1.0" encoding="UTF-8"?>
<svg width="128pt" height="128pt" version="1.1" viewBox="0 0 128 128" xmlns="http://www.w3.org/2000/svg">
 <path d="m41 14h-4v-6c0-1.1055 0.89453-2 2-2s2 0.89453 2 2zm54.398 0h-2.3984v10c0 1.1055-0.89453 2-2 2s-2-0.89453-2-2v-10h-48v10c0 1.1055-0.89453 2-2 2s-2-0.89453-2-2v-10h-4.3984c-5.7305 0-11.227 2.2734-15.277 6.3242s-6.3242 9.5469-6.3242 15.277v4.3984h106v-4.3984c0-5.7305-2.2734-11.227-6.3242-15.277s-9.5469-6.3242-15.277-6.3242zm-84.402 86.398c0 5.7305 2.2734 11.227 6.3242 15.277 4.0508 4.0508 9.5469 6.3242 15.277 6.3242h62.801c5.7305 0 11.227-2.2734 15.277-6.3242s6.3242-9.5469 6.3242-15.277v-56.398h-106zm82-92.402c0-1.1055-0.89453-2-2-2-1.1055 0-2 0.89453-2 2v6h4z"/>
</svg>
