<?xml version="1.0" encoding="UTF-8"?>
<svg width="128pt" height="128pt" version="1.1" viewBox="0 0 128 128" xmlns="http://www.w3.org/2000/svg">
 <path d="m57 46c-16.57 0-30 13.43-30 30s13.43 30 30 30 30-13.43 30-30-13.43-30-30-30zm2 6c0-1.1055-0.89453-2-2-2s-2 0.89453-2 2v4c0 1.1055 0.89453 2 2 2s2-0.89453 2-2zm-2 14c1.1055 0 2 0.89453 2 2v8c0 0.48438-0.17578 0.95312-0.49609 1.3164l-7 8c-0.72656 0.83203-1.9883 0.91797-2.8203 0.1875-0.83203-0.72656-0.91797-1.9883-0.1875-2.8203l6.5039-7.4336v-7.25c0-1.1055 0.89453-2 2-2zm2 30c0-1.1055-0.89453-2-2-2s-2 0.89453-2 2v4c0 1.1055 0.89453 2 2 2s2-0.89453 2-2zm24-20c0 1.1055-0.89453 2-2 2h-4c-1.1055 0-2-0.89453-2-2s0.89453-2 2-2h4c1.1055 0 2 0.89453 2 2zm-46 2c1.1055 0 2-0.89453 2-2s-0.89453-2-2-2h-4c-1.1055 0-2 0.89453-2 2s0.89453 2 2 2z" fill-rule="evenodd"/>
 <path d="m116.18 9.6172c0.89453-0.64844 1.0898-1.8984 0.44141-2.793-0.64844-0.89453-1.8984-1.0898-2.793-0.44141-3.5469 2.5781-9.6406 6.2383-16.281 8.7461-6.7148 2.5391-13.582 3.75-18.91 1.9727-12.547-4.1797-20.48-0.51562-23.152 2.5977-0.11719 0.13672-0.21094 0.28125-0.28516 0.4375-5.6367 0.84766-9.9883 5.6172-10.188 11.441-19.59 5.2773-34.008 23.164-34.008 44.422 0 25.406 20.594 46 46 46s46-20.594 46-46c0-21.258-14.418-39.145-34.008-44.422-0.17578-5.0781-3.5078-9.3555-8.0977-10.93 2.9375-1.4023 8.3477-2.4609 16.473 0.25 6.6719 2.2227 14.637 0.60156 21.59-2.0273 7.0273-2.6562 13.434-6.5 17.219-9.2539zm-93.176 66.383c0-18.777 15.223-34 34-34s34 15.223 34 34-15.223 34-34 34-34-15.223-34-34z" fill-rule="evenodd"/>
</svg>
