<?xml version="1.0" encoding="UTF-8"?>
<svg width="128pt" height="128pt" version="1.1" viewBox="0 0 128 128" xmlns="http://www.w3.org/2000/svg">
 <path d="m6 32c0-1.1055 0.89453-2 2-2h12c1.1055 0 2 0.89453 2 2s-0.89453 2-2 2h-12c-1.1055 0-2-0.89453-2-2zm2 34h12c1.1055 0 2-0.89453 2-2s-0.89453-2-2-2h-12c-1.1055 0-2 0.89453-2 2s0.89453 2 2 2zm14 30c0-0.53125-0.21094-1.0391-0.58594-1.4141s-0.88672-0.58594-1.4141-0.58594h-12c-1.1055 0-2 0.89453-2 2s0.89453 2 2 2h12c0.53125 0 1.0391-0.21094 1.4141-0.58594s0.58594-0.88672 0.58594-1.4141zm94-66h-4c-3.3164 0-6 2.6836-6 6v2h16v-2c0-3.3164-2.6836-6-6-6zm-10 72h16v-60h-16zm0 8c0 0.35938 0.09375 0.71094 0.28125 1.0195l6 10c0.35938 0.60547 1.0156 0.98047 1.7188 0.98047s1.3594-0.375 1.7188-0.98047l6-10c0.18359-0.30859 0.28125-0.66016 0.28125-1.0195v-4h-16zm-94-98v14h8c3.3164 0 6 2.6836 6 6s-2.6836 6-6 6h-8v20h8c3.3164 0 6 2.6836 6 6s-2.6836 6-6 6h-8v20h8c3.3164 0 6 2.6836 6 6s-2.6836 6-6 6h-8v14c0 3.3164 2.6836 6 6 6h12v-116h-12c-3.3164 0-6 2.6836-6 6zm70.48 14h-36.961c-0.83984 0-1.5195 0.67969-1.5195 1.5195v8.9609c0 0.83984 0.67969 1.5195 1.5195 1.5195h36.961c0.83984 0 1.5195-0.67969 1.5195-1.5195v-8.9609c0-0.83984-0.67969-1.5195-1.5195-1.5195zm15.52-14v104c0 3.3164-2.6836 6-6 6h-58v-116h58c3.3164 0 6 2.6836 6 6zm-28 87.34c0-0.53125-0.21094-1.0391-0.58594-1.4141s-0.88672-0.58594-1.4141-0.58594h-26c-1.1055 0-2 0.89453-2 2 0 1.1055 0.89453 2 2 2h26c0.53125 0 1.0391-0.21094 1.4141-0.58594s0.58594-0.88672 0.58594-1.4141zm18-11.68c0-0.53125-0.21094-1.0391-0.58594-1.4141s-0.88672-0.58594-1.4141-0.58594h-44c-1.1055 0-2 0.89453-2 2 0 1.1055 0.89453 2 2 2h44c0.53125 0 1.0391-0.21094 1.4141-0.58594s0.58594-0.88672 0.58594-1.4141zm-46-9.6602h26c1.1055 0 2-0.89453 2-2s-0.89453-2-2-2h-26c-1.1055 0-2 0.89453-2 2s0.89453 2 2 2zm46-13.66c0-0.53125-0.21094-1.0391-0.58594-1.4141s-0.88672-0.58594-1.4141-0.58594h-44c-1.1055 0-2 0.89453-2 2 0 1.1055 0.89453 2 2 2h44c0.53125 0 1.0391-0.21094 1.4141-0.58594s0.58594-0.88672 0.58594-1.4141zm0-36.82c-0.011719-3.0469-2.4766-5.5117-5.5195-5.5195h-36.961c-3.0469 0.011719-5.5117 2.4766-5.5195 5.5195v8.9609c0.011719 3.0469 2.4766 5.5117 5.5195 5.5195h36.961c3.0469-0.011719 5.5117-2.4766 5.5195-5.5195z"/>
</svg>
