<?xml version="1.0" encoding="UTF-8"?>
<svg width="128pt" height="128pt" version="1.1" viewBox="0 0 128 128" xmlns="http://www.w3.org/2000/svg">
 <path d="m96 120c0 0.53125-0.21094 1.0391-0.58594 1.4141s-0.88672 0.58594-1.4141 0.58594h-60c-1.1055 0-2-0.89453-2-2 0-5.5234 4.4766-10 10-10h12v-12c-5.3047 0-10.391-2.1055-14.141-5.8594-3.7539-3.75-5.8594-8.8359-5.8594-14.141v-4h20c1.1055 0 2-0.89453 2-2s-0.89453-2-2-2h-20v-4h20c1.1055 0 2-0.89453 2-2s-0.89453-2-2-2h-20v-4h20c1.1055 0 2-0.89453 2-2s-0.89453-2-2-2h-20v-4h20c1.1055 0 2-0.89453 2-2s-0.89453-2-2-2h-20v-4h20c1.1055 0 2-0.89453 2-2s-0.89453-2-2-2h-20v-4h20c1.1055 0 2-0.89453 2-2s-0.89453-2-2-2h-20v-4c0-5.3047 2.1055-10.391 5.8594-14.141 3.75-3.7539 8.8359-5.8594 14.141-5.8594v10c0 1.1055 0.89453 2 2 2s2-0.89453 2-2v-10h4v10c0 1.1055 0.89453 2 2 2s2-0.89453 2-2v-10h4v10c0 1.1055 0.89453 2 2 2s2-0.89453 2-2v-10c5.3047 0 10.391 2.1055 14.141 5.8594 3.7539 3.75 5.8594 8.8359 5.8594 14.141v4h-20c-1.1055 0-2 0.89453-2 2s0.89453 2 2 2h20v4h-20c-1.1055 0-2 0.89453-2 2s0.89453 2 2 2h20v4h-20c-1.1055 0-2 0.89453-2 2s0.89453 2 2 2h20v4h-20c-1.1055 0-2 0.89453-2 2s0.89453 2 2 2h20v4h-20c-1.1055 0-2 0.89453-2 2s0.89453 2 2 2h20v4h-20c-1.1055 0-2 0.89453-2 2s0.89453 2 2 2h20v4c0 5.3047-2.1055 10.391-5.8594 14.141-3.75 3.7539-8.8359 5.8594-14.141 5.8594v12h12c2.6484 0 5.1953 1.0547 7.0703 2.9297s2.9297 4.4219 2.9297 7.0703z"/>
</svg>
