<?xml version="1.0" encoding="UTF-8"?>
<svg width="128pt" height="128pt" version="1.1" viewBox="0 0 128 128" xmlns="http://www.w3.org/2000/svg">
 <path d="m84.781 94.539c-3.1289 0-5.9531-1.8867-7.1484-4.7812-1.1992-2.8906-0.53516-6.2188 1.6758-8.4336 2.2148-2.2109 5.5469-2.875 8.4336-1.6758 2.8945 1.1953 4.7812 4.0195 4.7812 7.1484 0 4.2734-3.4648 7.7383-7.7383 7.7383zm30.961-3.5195c0-3.1289-1.8867-5.9531-4.7812-7.1484-2.8906-1.1992-6.2188-0.53516-8.4336 1.6758-2.2109 2.2148-2.875 5.5469-1.6758 8.4336 1.1953 2.8945 4.0195 4.7812 7.1484 4.7812 2.0547 0 4.0195-0.81641 5.4766-2.2656 1.4492-1.4531 2.2656-3.4219 2.2656-5.4766zm6.7188 18.301c-1.3086-6.1562-6.7461-10.555-13.039-10.559h-2.8203c-1.6641-0.011719-3.3164 0.30859-4.8594 0.94141 1.3242 2.5352 2.0156 5.3594 2 8.2188 0.039062 0.46484 0.039062 0.93359 0 1.3984zm-53.16-18.301c0-3.1289-1.8867-5.9531-4.7812-7.1484-2.8906-1.1992-6.2188-0.53516-8.4336 1.6758-2.2109 2.2148-2.875 5.5469-1.6758 8.4336 1.1953 2.8945 4.0195 4.7812 7.1484 4.7812 4.2695-0.011719 7.7305-3.4688 7.7383-7.7383zm0.69922 16.98c0 0.46875 0.058594 0.94531 0.17969 1.3984h29.219c0.10547-0.46094 0.15625-0.92969 0.16016-1.3984 0-7.3789-5.9805-13.371-13.359-13.379h-2.8398c-7.3789 0.011718-13.359 6-13.359 13.379zm52 7.3398c-0.79688-1.0781-2.0586-1.7148-3.3984-1.7188h-67.598c-1.3398 0.003906-2.6016 0.64453-3.3984 1.7188-0.89453 1.2852-1.0039 2.9531-0.29688 4.3516 0.71094 1.3906 2.1289 2.2812 3.6953 2.3086h67.559c1.6016 0.003906 3.0664-0.89062 3.7891-2.3086 0.73047-1.4258 0.59375-3.1406-0.35156-4.4297zm-74.859-6h18.781c-0.039063-0.46484-0.039063-0.93359 0-1.3984-0.019531-2.8633 0.66406-5.6836 2-8.2188-1.5469-0.62891-3.1953-0.94531-4.8594-0.94141h-2.9219c-6.2852 0.011719-11.715 4.3945-13.039 10.539zm-19.461-76.539c4.2031 0 8-2.5352 9.6094-6.4219 1.6094-3.8867 0.71875-8.3594-2.2539-11.336-2.9766-2.9766-7.4492-3.8633-11.336-2.2539-3.8867 1.6094-6.4219 5.4062-6.4219 9.6094 0 5.7461 4.6562 10.398 10.398 10.398zm23.66 26.621c2.7266 1.4688 6.1094 0.75 8-1.6992 0.30078-0.39844 5.2383-6.6016 8.4414-10.641 1.0391-1.25 1.5039-2.8867 1.2812-4.4961-0.23047-1.6133-1.1289-3.0547-2.4805-3.9648-2.5469-1.5781-5.8633-1.0469-7.7812 1.2617l-5.3398 6.3984-9.7188-7.1406c-3.1602-2.0195-6.8281-3.1055-10.578-3.1406h-16.781c-6.3086 0.15625-11.305 5.3906-11.16 11.699v16.98c0.011719 4.6445 3.7734 8.4102 8.4219 8.4219h0.60156v19c-0.003906 4.3047 3.3984 7.8398 7.6992 8h1.8203c1.3984 0.011719 2.7812-0.35156 4-1.0391v-29.059c0-1.1055 0.89453-2 2-2s2 0.89453 2 2v29.121c1.2461 0.74609 2.6719 1.1406 4.1211 1.1406h1.5c2.1211 0 4.1562-0.84375 5.6562-2.3438s2.3438-3.5352 2.3438-5.6562v-36.941l5.8203 4c0.039063 0.046875 0.085938 0.074219 0.14062 0.10156zm42.32-35.141c1.3555 0.011719 2.5742-0.80078 3.1016-2.0508 0.52344-1.2461 0.23828-2.6836-0.71094-3.6445-0.95312-0.96094-2.3945-1.25-3.6445-0.73438-1.25 0.51953-2.0664 1.7344-2.0664 3.0898 0 1.8359 1.4844 3.3281 3.3203 3.3398zm-64.922-16.281c1.1406-1.2734 2.7695-2 4.4805-2h82c3.3164 0 6 2.6836 6 6v34.82h-32c-1.1055 0-2 0.89453-2 2 0 1.1055 0.89453 2 2 2h32v8h-49.559c-1.1055 0-2 0.89453-2 2 0 1.1055 0.89453 2 2 2h49.559v5.1797c0 3.3164-2.6836 6-6 6h-65.898v-11.102l0.37891 0.17969c1.4805 0.73438 3.1094 1.1211 4.7617 1.1211 3.2305 0.019531 6.2812-1.5039 8.1992-4.1016l3.7617-4.7383c1.5-1.8984 3.1992-4 4.5586-5.7617 1.7617-2.1133 2.5352-4.8789 2.1406-7.6016-0.39062-2.7266-1.9062-5.1641-4.1797-6.7188-1.5859-1.0781-3.4609-1.6484-5.3789-1.6406-2.9961-0.003907-5.8359 1.3281-7.7383 3.6406l-2.9219 3.5195-6.6992-4.8008c-0.070313-0.070313-0.14844-0.125-0.23828-0.16016-2.4492-1.5508-5.1602-2.6289-8-3.1992 4.0742-3.9805 5.4141-9.9883 3.4141-15.324-1.9961-5.3281-6.9492-8.9844-12.637-9.3164zm57.602 12.879c-0.011719 2.9688 1.7734 5.6562 4.5195 6.7969 2.7461 1.1445 5.9102 0.51562 8.0117-1.5859 2.1016-2.1016 2.7305-5.2656 1.5859-8.0117-1.1406-2.7461-3.8242-4.5312-6.7969-4.5195-1.9492 0-3.8242 0.78125-5.1953 2.1641-1.375 1.3867-2.1406 3.2656-2.125 5.2148zm-20 0c-0.011719 2.9688 1.7734 5.6562 4.5195 6.7969 2.7461 1.1445 5.9102 0.51562 8.0117-1.5859 2.1016-2.1016 2.7305-5.2656 1.5859-8.0117-1.1406-2.7461-3.8242-4.5312-6.7969-4.5195-1.9492 0-3.8242 0.78125-5.1953 2.1641-1.375 1.3867-2.1406 3.2656-2.125 5.2148zm-20 0c-0.011719 2.9688 1.7734 5.6562 4.5195 6.7969 2.7461 1.1445 5.9102 0.51562 8.0117-1.5859 2.1016-2.1016 2.7305-5.2656 1.5859-8.0117-1.1406-2.7461-3.8242-4.5312-6.7969-4.5195-1.9492 0-3.8242 0.78125-5.1953 2.1641-1.375 1.3867-2.1406 3.2656-2.125 5.2148zm7.3203 3.3398c1.3555 0.011719 2.5742-0.80078 3.1016-2.0508 0.52344-1.2461 0.23828-2.6836-0.71094-3.6445-0.95312-0.96094-2.3945-1.25-3.6445-0.73438-1.25 0.51953-2.0664 1.7344-2.0664 3.0898-0.015625 0.89453 0.32422 1.7539 0.94922 2.3945 0.625 0.63672 1.4766 1 2.3711 1.0039zm20 0c1.3555 0.011719 2.5742-0.80078 3.1016-2.0508 0.52344-1.2461 0.23828-2.6836-0.71094-3.6445-0.95312-0.96094-2.3945-1.25-3.6445-0.73438-1.25 0.51953-2.0664 1.7344-2.0664 3.0898-0.015625 0.89453 0.32422 1.7539 0.94922 2.3945 0.625 0.63672 1.4766 1 2.3711 1.0039z"/>
</svg>
