<?xml version="1.0" encoding="UTF-8"?>
<svg width="128pt" height="128pt" version="1.1" viewBox="0 0 128 128" xmlns="http://www.w3.org/2000/svg">
 <path d="m62 16.578v-8c0-1.1055 0.89453-2 2-2s2 0.89453 2 2v8c0 1.1055-0.89453 2-2 2s-2-0.89453-2-2zm-20.941 6.6992c0.35938 0.62891 1.0352 1.0117 1.7617 1 0.71875 0.003906 1.3906-0.375 1.7539-1 0.35938-0.625 0.35547-1.3984-0.015625-2.0195l-4-7c-0.55078-0.96094-1.7812-1.2891-2.7383-0.73828-0.96094 0.55078-1.2891 1.7812-0.73828 2.7383zm-12.738 12.719-7-4c-0.96484-0.55078-2.1992-0.21484-2.75 0.75-0.55078 0.96484-0.21484 2.1992 0.75 2.75l7 4c0.30469 0.17578 0.64844 0.26172 1 0.26172 0.92578 0.023438 1.7461-0.58984 1.9844-1.4844 0.23437-0.89453-0.17188-1.8359-0.98438-2.2734zm-4.6797 22.961c0-0.53125-0.21094-1.0391-0.58594-1.4141s-0.88672-0.58594-1.4141-0.58594h-8c-1.1055 0-2 0.89453-2 2s0.89453 2 2 2h8c0.53125 0 1.0391-0.21094 1.4141-0.58594s0.58594-0.88672 0.58594-1.4141zm2.6602 19.441-7 4c-0.46484 0.26562-0.80469 0.71094-0.94141 1.2305-0.13672 0.51953-0.054687 1.0703 0.21875 1.5312 0.35547 0.62891 1.0195 1.0195 1.7383 1.0195 0.35156-0.003907 0.69531-0.10156 1-0.28125l7-4c0.96094-0.55078 1.2891-1.7812 0.73828-2.7383-0.55078-0.96094-1.7812-1.2891-2.7383-0.73828zm82.398 4-7-4c-0.96094-0.55078-2.1914-0.21875-2.7383 0.73828-0.55078 0.96094-0.21875 2.1914 0.73828 2.7383l7 4c0.30469 0.17969 0.64844 0.27344 1 0.28125 0.71875 0 1.3867-0.39062 1.7383-1.0195 0.54688-0.95312 0.21094-2.1719-0.73828-2.7188zm5.7383-25.48h-8c-1.1055 0-2 0.89453-2 2s0.89453 2 2 2h8c1.1055 0 2-0.89453 2-2s-0.89453-2-2-2zm-13.738-17.16c0.35156 0 0.69531-0.085937 1-0.26172l7-4c0.96484-0.55078 1.3008-1.7852 0.75-2.75s-1.7852-1.3008-2.75-0.75l-7 4c-0.82031 0.44141-1.2266 1.3867-0.98438 2.2852 0.24609 0.89453 1.0742 1.5117 2.0039 1.4766zm-16.52-15.758c0.30469 0.17578 0.64844 0.26172 1 0.26172 0.72656 0.011719 1.3984-0.37109 1.7617-1l4-7c0.55078-0.96094 0.21875-2.1914-0.73828-2.7383-0.96094-0.55078-2.1914-0.21875-2.7383 0.73828l-4 7c-0.26953 0.46094-0.34375 1.0039-0.21094 1.5195 0.13672 0.51562 0.46875 0.95312 0.92969 1.2188zm-8 77.301h-24.18c-2.2109 0-4 1.7891-4 4 0 2.2109 1.7891 4 4 4h24.199c2.2109 0 4-1.7891 4-4 0-2.2109-1.7891-4-4-4zm0 12.102h-24.18c-2.2109 0-4 1.7891-4 4 0 2.2109 1.7891 4 4 4h24.199c2.2109 0 4-1.7891 4-4 0-2.2109-1.7891-4-4-4zm6-55.801v2.6602c0 0.17969-0.14063 0.32812-0.32031 0.33984-1.8516-0.019531-3.5039 1.1484-4.1016 2.8984-0.21484 0.68359-0.47656 1.3516-0.78125 2-0.83984 1.6562-0.51172 3.6641 0.82031 4.9609 0.12109 0.12891 0.12109 0.32812 0 0.46094l-1.8789 1.8789c-0.12891 0.12109-0.32812 0.12109-0.46094 0-1.3047-1.3242-3.3242-1.6484-4.9805-0.80078-0.64062 0.32422-1.3086 0.58984-2 0.80078-1.7148 0.58594-2.8789 2.1836-2.8984 4 0 0.17578-0.14453 0.32031-0.32031 0.32031h-2.6016c-0.17578 0-0.32031-0.14453-0.32031-0.32031-0.019532-1.8164-1.1836-3.4141-2.8984-4-0.69141-0.21094-1.3594-0.47656-2-0.80078-1.6602-0.84375-3.6719-0.50391-4.9609 0.83984-0.12891 0.12109-0.32812 0.12109-0.46094 0l-1.8789-1.8789c-0.12109-0.12891-0.12109-0.32813 0-0.46094 1.3281-1.2969 1.6602-3.3047 0.82031-4.9609-0.30469-0.64844-0.56641-1.3164-0.78125-2-0.59375-1.75-2.25-2.9219-4.1016-2.8984-0.17969-0.011719-0.32031-0.16016-0.32031-0.33984v-2.6797c0-0.085938 0.035156-0.16406 0.09375-0.22656 0.058594-0.058593 0.14062-0.09375 0.22656-0.09375 1.8516 0.019531 3.5039-1.1484 4.1016-2.8984 0.21094-0.68359 0.46875-1.3555 0.78125-2 0.85156-1.6562 0.51562-3.6719-0.82031-4.9609-0.12109-0.12891-0.12109-0.32812 0-0.46094l1.8789-1.8789c0.12891-0.12109 0.32812-0.12109 0.46094 0 1.3008 1.3242 3.3047 1.6562 4.9609 0.82031 0.64453-0.30859 1.3164-0.57031 2-0.78125 1.75-0.59375 2.9219-2.25 2.8984-4.1016 0-0.085937 0.035156-0.16406 0.09375-0.22656 0.058593-0.058594 0.14062-0.09375 0.22656-0.09375h2.6797c0.085937 0 0.16406 0.035156 0.22656 0.09375 0.058594 0.058594 0.09375 0.14062 0.09375 0.22656-0.019531 1.8516 1.1484 3.5039 2.8984 4.1016 0.68359 0.21094 1.3555 0.46875 2 0.78125 1.6562 0.83594 3.6602 0.50391 4.9609-0.82031 0.12891-0.12109 0.32812-0.12109 0.46094 0l1.8789 1.8789c0.12109 0.12891 0.12109 0.32812 0 0.46094-1.3359 1.2891-1.6719 3.3047-0.82031 4.9609 0.30859 0.64453 0.57031 1.3164 0.78125 2 0.59375 1.75 2.25 2.9219 4.1016 2.8984 0.14453 0.035157 0.24609 0.17188 0.23828 0.32031zm-8 1.3398c0-4.0469-2.4336-7.6914-6.1758-9.2383-3.7344-1.5469-8.0352-0.69141-10.895 2.1719-2.8594 2.8594-3.7148 7.1602-2.1719 10.895 1.5508 3.7383 5.1953 6.1758 9.2383 6.1758 5.4453-0.10156 9.8086-4.5352 9.8203-9.9805zm-10-6c-2.4258 0-4.6133 1.4609-5.5469 3.7031-0.92578 2.2383-0.41406 4.8203 1.3008 6.5391 1.7188 1.7148 4.3008 2.2266 6.5391 1.3008 2.2461-0.92969 3.7031-3.1211 3.7031-5.5469 0.011719-1.6289-0.64062-3.1953-1.8047-4.3359-1.1641-1.1406-2.7461-1.7539-4.375-1.7031zm23.66-18.781c7.3789 7.0234 11.25 16.965 10.566 27.129-0.68359 10.164-5.8516 19.5-14.105 25.469-2.6406 1.9297-4.5469 4.7031-5.3984 7.8594-0.50391 1.7734-2.1602 2.9688-4 2.8984h-21.68c-1.7734 0.023437-3.3555-1.125-3.8789-2.8203-1.0156-3.3398-3.0859-6.2539-5.8984-8.3203-7.6133-5.6445-12.555-14.191-13.645-23.609-1.0898-9.4141 1.7656-18.863 7.8906-26.102 6.1211-7.2344 14.965-11.613 24.434-12.102 9.4648-0.48438 18.711 2.9766 25.539 9.5508zm-1.6406 23.461c-0.011719-2.4062-1.9531-4.3516-4.3594-4.3594-0.12109 0-0.23828 0-0.26172-0.14062-0.28906-0.84375-0.63672-1.6641-1.0391-2.4609-0.058593-0.089844-0.058593-0.21094 0-0.30078 1.6992-1.6992 1.6992-4.4609 0-6.1602l-2-1.8789c-0.80859-0.82031-1.9141-1.2812-3.0703-1.2812s-2.2617 0.46094-3.0703 1.2812c-0.09375 0.054688-0.20313 0.054688-0.30078 0-0.78906-0.41406-1.6133-0.76172-2.4609-1.0391-0.10547-0.046875-0.17188-0.14844-0.16016-0.26172 0-2.3984-1.9414-4.3516-4.3398-4.3594h-2.4805c-2.3984 0.011719-4.3398 1.9609-4.3398 4.3594 0.011719 0.10938-0.054687 0.21484-0.16016 0.26172-0.84375 0.28125-1.6719 0.625-2.4609 1.0391-0.10937 0.03125-0.23047-0.011718-0.30078-0.10156-0.81641-0.81641-1.9219-1.2695-3.0703-1.2695-1.1484 0-2.2539 0.45312-3.0703 1.2695l-1.8984 1.8789c-0.82031 0.81641-1.2812 1.9258-1.2812 3.0781 0 1.1562 0.46094 2.2656 1.2812 3.0781 0.054687 0.09375 0.054687 0.20312 0 0.30078-0.40625 0.79687-0.75 1.6133-1.0391 2.4609 0 0-0.14062 0.14062-0.26172 0.14062-2.4062 0.011719-4.3516 1.9531-4.3594 4.3594v2.6602c0.011719 2.4062 1.9531 4.3516 4.3594 4.3594 0.12109 0 0.23828 0 0.26172 0.14062 0.28125 0.84375 0.62891 1.6719 1.0391 2.4609 0 0 0 0.19922-0.10156 0.32031-0.81641 0.81641-1.2695 1.9219-1.2695 3.0703 0 1.1484 0.45312 2.2539 1.2695 3.0703l1.8984 1.8984c0.80859 0.82031 1.9141 1.2812 3.0703 1.2812s2.2617-0.46094 3.0703-1.2812c0.09375-0.054688 0.20312-0.054688 0.30078 0 0.79688 0.39844 1.6133 0.73828 2.4609 1.0195 0.10156 0 0.16016 0.16016 0.16016 0.28125 0 2.3945 1.9453 4.3398 4.3398 4.3398h2.6797c2.3945 0 4.3398-1.9453 4.3398-4.3398 0-0.12109 0-0.26172 0.16016-0.28125 0.84375-0.28125 1.6641-0.62109 2.4609-1.0195 0.089844-0.058594 0.21094-0.058594 0.30078 0 0.81641 0.81641 1.9219 1.2695 3.0703 1.2695 1.1484 0 2.2539-0.45312 3.0703-1.2695l2-1.8984c0.82031-0.80859 1.2812-1.9141 1.2812-3.0703s-0.46094-2.2617-1.2812-3.0703c-0.050781-0.10156-0.050781-0.21875 0-0.32031 0.41016-0.78906 0.76172-1.6133 1.0391-2.4609 0 0 0.14062-0.14062 0.26172-0.14062 2.4062-0.011718 4.3516-1.9531 4.3594-4.3594z"/>
</svg>
