<?xml version="1.0" encoding="UTF-8"?>
<svg width="128pt" height="128pt" version="1.1" viewBox="0 0 128 128" xmlns="http://www.w3.org/2000/svg">
 <path d="m54.84 25.801c0 9.8281-7.9688 17.801-17.801 17.801-9.8281 0-17.801-7.9727-17.801-17.801 0-9.832 7.9727-17.801 17.801-17.801 9.832 0 17.801 7.9688 17.801 17.801z"/>
 <path d="m112.76 25.801c0 9.8281-7.9727 17.801-17.801 17.801-9.832 0-17.801-7.9727-17.801-17.801 0-9.832 7.9688-17.801 17.801-17.801 9.8281 0 17.801 7.9688 17.801 17.801z"/>
 <path d="m94 52c-6.8906 0.011719-13.5 2.7539-18.375 7.625-4.8711 4.875-7.6133 11.484-7.625 18.375v38c0 1.0625 0.42188 2.0781 1.1719 2.8281s1.7656 1.1719 2.8281 1.1719h44c1.0625 0 2.0781-0.42188 2.8281-1.1719s1.1719-1.7656 1.1719-2.8281v-38c-0.011719-6.8906-2.7539-13.5-7.625-18.375-4.875-4.8711-11.484-7.6133-18.375-7.625z"/>
 <path d="m38 52c-6.8906 0.011719-13.5 2.7539-18.375 7.625-4.8711 4.875-7.6133 11.484-7.625 18.375v38c0 1.0625 0.42188 2.0781 1.1719 2.8281s1.7656 1.1719 2.8281 1.1719h44c1.0625 0 2.0781-0.42188 2.8281-1.1719s1.1719-1.7656 1.1719-2.8281v-38c-0.011719-6.8906-2.7539-13.5-7.625-18.375-4.875-4.8711-11.484-7.6133-18.375-7.625z"/>
</svg>
