<?xml version="1.0" encoding="UTF-8"?>
<svg width="512pt" height="512pt" version="1.1" viewBox="0 0 512 512" xmlns="http://www.w3.org/2000/svg">
 <path d="m256.06 43.121c117.67 0 212.89 95.23 212.89 212.89 0 117.64-95.219 212.86-212.89 212.86-117.62 0-212.86-95.219-212.86-212.86 0-117.66 95.23-212.89 212.86-212.89zm0-12.883c-124.59 0-225.75 101.15-225.75 225.77 0 124.6 101.15 225.75 225.75 225.75 124.62 0 225.78-101.15 225.78-225.75-0.007813-124.62-101.16-225.77-225.78-225.77z" fill="#9b9b9b" fill-rule="evenodd"/>
 <path d="m295.11 110.53c2.4922-1.125 6.0742-1.2109 11.434 4.1484 13.723 13.746 33.309 44.266 33.309 84.031 0 43.645-9.7578 68.949-22.848 82.066-1.332 1.332-2.0195 3.2031-1.8438 5.0703l10.023 123.35c0.44531 5.2383-1.2227 8.1484-4.1523 10.547-2.9336 2.4023-7.6133 3.9375-12.465 3.9375-4.8633 0.035156-9.7773-1.4453-13.066-3.9922-3.2891-2.5195-5.2773-5.6602-5.2773-10.996v-288.18c0-5.5391 2.4297-8.8516 4.8867-9.9805zm-5.3633-11.766c-7.8438 3.6172-12.414 12.207-12.414 21.75v288.18c0 9.0664 4.2656 16.621 10.312 21.242 6.0469 4.625 13.566 6.668 20.945 6.6406 7.4141-0.023438 14.82-2.0703 20.621-6.8398 5.8086-4.7383 9.582-12.594 8.8359-21.574l-9.9219-121.8c15.133-17.004 24.621-44.418 24.621-87.645 0-43.941-20.98-77.066-37.047-93.129-7.9297-7.9727-18.066-10.43-25.953-6.8164z" fill="#9b9b9b" fill-rule="evenodd"/>
 <path d="m208.27 97.109c-3.5547 0.023437-6.4336 2.9648-6.3672 6.543v83.734c0 8.6289 12.941 8.6289 12.941 0v-83.73c0.035156-3.6445-2.9297-6.6055-6.5742-6.5469z" fill="#9b9b9b" fill-rule="evenodd"/>
 <path d="m170.72 97.109c-3.5547-0.12109-6.543 2.6953-6.6328 6.2812l-4.6758 107.85c-0.71094 16.297 11.078 28.176 24.145 36.324l-7.1094 157.48c-0.80078 17.629 14.434 31.527 31.91 31.527s32.711-13.891 31.91-31.527l-7.082-157.45c13.066-8.1484 24.855-20.031 24.145-36.359l-4.7109-107.85c-0.14062-3.5547-3.1445-6.3359-6.7227-6.1602-3.5547 0.14844-6.3086 3.1328-6.168 6.7227l4.7109 107.88c0.47656 10.758-8.625 20.441-20.945 27.25-2.168 1.1953-3.4648 3.5-3.3242 5.957l7.2031 160.59c0.44531 9.8359-8.3008 18.047-19.023 18.047-10.723 0-19.469-8.2031-19.023-18.047l7.2305-160.59c0.11328-2.457-1.1562-4.7617-3.3242-5.957-12.355-6.8086-21.426-16.492-20.945-27.25l4.7109-107.88c0.20703-3.6406-2.6367-6.75-6.2773-6.8359z" fill="#9b9b9b" fill-rule="evenodd"/>
 <path d="m140.41 133.97c-1.6562 0.0625-3.2539 0.76953-4.4102 1.9844-66.254 66.254-66.254 173.84 0 240.12 2.4922 2.7266 6.7227 2.8164 9.3359 0.20313 2.6094-2.6055 2.5195-6.8438-0.21094-9.3281-61.332-61.332-61.332-160.56 0-221.89 4.2383-4.0898 1.1836-11.289-4.7148-11.082z" fill="#9b9b9b" fill-rule="evenodd"/>
 <path d="m371.52 133.97c-5.8008 0-8.6758 7.0547-4.5 11.082 29.422 29.422 45.977 69.332 45.977 110.96 0 41.602-16.555 81.512-45.977 110.93-2.7266 2.4922-2.8438 6.7227-0.23438 9.3281 2.6016 2.6094 6.8672 2.5156 9.3359-0.20313 31.848-31.852 49.766-75.023 49.766-120.06 0-45.039-17.922-88.234-49.766-120.06-1.1914-1.2734-2.8828-1.9844-4.6016-1.9844z" fill="#9b9b9b" fill-rule="evenodd"/>
</svg>
