<?xml version="1.0" encoding="UTF-8"?>
<svg width="1200pt" height="1200pt" version="1.1" viewBox="0 0 1200 1200" xmlns="http://www.w3.org/2000/svg">
 <path d="m420.84 524.53v16.922c0 64.547 34.312 121.22 85.547 152.76 18.703 11.531 39.844 19.688 62.297 23.625 10.219 1.7812 20.625 2.7656 31.312 2.7656s21.141-0.9375 31.312-2.7656c22.453-3.9375 43.547-12.141 62.297-23.625 51.234-31.547 85.547-88.219 85.547-152.76v-242.2c0-64.547-34.312-121.22-85.547-152.63-0.60938-0.375-1.2188-0.70312-1.7812-1.0781h-0.23438c-18.234-11.062-38.625-18.844-60.234-22.547-10.219-1.7812-20.625-2.7656-31.312-2.7656s-21.141 0.9375-31.312 2.7656c-21.609 3.8438-42 11.625-60.234 22.547h-0.23438c-0.60938 0.375-1.2188 0.60938-1.7812 1.0781-51.234 31.453-85.547 88.078-85.547 152.63v225.28zm24 12h90.469c6.6094 0 12-5.3906 12-12s-5.3906-12-12-12h-90.469v-47.062h90.469c6.6094 0 12-5.3906 12-12s-5.3906-12-12-12h-90.469v-47.062h90.469c6.6094 0 12-5.3906 12-12s-5.3906-12-12-12h-90.469v-47.062h90.469c6.6094 0 12-5.3906 12-12s-5.3906-12-12-12h-90.469v-0.23438c0-48 21.938-90.938 56.297-119.39v60.609c0 6.6094 5.3906 12 12 12s12-5.3906 12-12v-77.062c10.688-5.8594 22.078-10.547 33.938-13.781v90.844c0 6.6094 5.3906 12 12 12s12-5.3906 12-12v-95.391c5.5312-0.60938 11.156-0.9375 16.922-0.9375s11.391 0.375 16.922 0.9375v95.391c0 6.6094 5.3906 12 12 12s12-5.3906 12-12v-90.844c11.859 3.2344 23.297 7.9219 33.938 13.781v77.062c0 6.6094 5.3906 12 12 12s12-5.3906 12-12v-60.609c34.312 28.453 56.297 71.391 56.297 119.39v0.23438h-90.469c-6.6094 0-12 5.3906-12 12s5.3906 12 12 12h90.469v47.062h-90.469c-6.6094 0-12 5.3906-12 12s5.3906 12 12 12h90.469v47.062h-90.469c-6.6094 0-12 5.3906-12 12s5.3906 12 12 12h90.469v47.062h-90.469c-6.6094 0-12 5.3906-12 12s5.3906 12 12 12h90.469v4.9219c0 48-21.938 90.938-56.297 119.39v-60.469c0-6.6094-5.3906-12-12-12s-12 5.3906-12 12v76.922c-10.688 5.8594-22.078 10.547-33.938 13.781v-90.703c0-6.6094-5.3906-12-12-12s-12 5.3906-12 12v95.297c-5.5312 0.60938-11.156 0.9375-16.922 0.9375s-11.391-0.375-16.922-0.9375v-95.297c0-6.6094-5.3906-12-12-12s-12 5.3906-12 12v90.703c-11.859-3.2344-23.297-7.9219-33.938-13.781v-76.922c0-6.6094-5.3906-12-12-12s-12 5.3906-12 12v60.469c-34.312-28.453-56.297-71.391-56.297-119.39z"/>
 <path d="m338.16 444.37c-11.531 0-22.453 4.4531-30.703 12.703-8.1562 8.1562-12.703 19.219-12.703 30.703v53.625c0 152.76 111.7 280.78 261.71 302.16v126.94h-85.453c-31.219 0-56.531 25.312-56.531 56.391v28.781c0 13.312 10.922 24.234 24.375 24.234h322.31c13.453 0 24.375-10.922 24.375-24.234v-28.781c0-31.078-25.312-56.391-56.531-56.391h-85.453v-126.94c150-21.375 261.71-149.39 261.71-302.16v-53.625c0-11.531-4.5469-22.547-12.703-30.703-8.2969-8.2969-19.219-12.703-30.703-12.703-24 0-43.547 19.453-43.547 43.453v48c0 119.06-94.219 219.47-209.86 223.78-60 2.2969-116.53-19.453-159.71-60.938-43.219-41.531-66.938-97.312-66.938-157.22v-53.625c0-24-19.547-43.453-43.547-43.453zm93.844 271.55c47.859 46.078 110.86 70.078 177.24 67.688 128.53-4.7812 233.06-116.06 233.06-247.78v-48c0-10.688 8.7656-19.453 19.547-19.453 5.1562 0 10.078 2.0625 13.781 5.625 3.6094 3.7031 5.625 8.625 5.625 13.781v53.625c0 144.14-107.86 264.37-251.06 279.71l-10.688 1.0781v172.31h109.45c17.859 0 32.531 14.531 32.531 32.391l-0.375 29.062-322.69-0.23438v-28.781c0-17.859 14.625-32.391 32.531-32.391h109.45v-172.31l-10.688-1.0781c-143.16-15.375-251.06-135.61-251.06-279.71v-53.625c0-5.1562 2.0625-10.078 5.625-13.781 3.7031-3.6094 8.625-5.625 13.781-5.625 10.781 0 19.547 8.7656 19.547 19.453v53.625c0 66.375 26.391 128.39 74.297 174.47z"/>
</svg>
