<?xml version="1.0" encoding="UTF-8"?>
<svg width="128pt" height="128pt" version="1.1" viewBox="0 0 128 128" xmlns="http://www.w3.org/2000/svg">
 <path d="m109.04 57.066c-21.504-5.9414-25.98-10.414-31.914-31.922-0.25-0.89844-1.0703-1.5234-2-1.5234-0.93359 0-1.75 0.625-2 1.5234-5.9414 21.504-10.414 25.98-31.922 31.922-0.89844 0.25-1.5234 1.0703-1.5234 2 0 0.93359 0.625 1.75 1.5234 2 21.504 5.9414 25.98 10.41 31.922 31.914 0.25 0.89844 1.0703 1.5234 2 1.5234 0.93359 0 1.75-0.625 2-1.5234 5.9414-21.504 10.41-25.98 31.914-31.914 0.89844-0.25 1.5234-1.0703 1.5234-2 0-0.93359-0.625-1.75-1.5234-2z"/>
 <path d="m25.629 29.648c9.7188 2.6836 11.441 4.3984 14.121 14.121 0.25 0.89844 1.0703 1.5234 2 1.5234 0.93359 0 1.75-0.625 2-1.5234 2.6836-9.7188 4.3984-11.441 14.121-14.121 0.89844-0.25 1.5234-1.0703 1.5234-2 0-0.93359-0.625-1.75-1.5234-2-9.7188-2.6836-11.434-4.3984-14.121-14.121-0.25-0.89844-1.0703-1.5234-2-1.5234-0.93359 0-1.75 0.625-2 1.5234-2.6836 9.7188-4.3984 11.441-14.121 14.121-0.89844 0.25-1.5234 1.0703-1.5234 2 0 0.93359 0.625 1.75 1.5234 2z"/>
 <path d="m60.105 94.602c-12.648-3.4883-15.078-5.9258-18.57-18.57-0.25-0.89844-1.0703-1.5234-2-1.5234-0.93359 0-1.75 0.625-2 1.5234-3.4883 12.648-5.9219 15.078-18.57 18.57-0.89844 0.25-1.5234 1.0703-1.5234 2 0 0.93359 0.625 1.75 1.5234 2 12.648 3.4883 15.078 5.9258 18.57 18.57 0.25 0.89844 1.0703 1.5234 2 1.5234 0.93359 0 1.75-0.625 2-1.5234 3.4883-12.648 5.9258-15.078 18.57-18.57 0.89844-0.25 1.5234-1.0703 1.5234-2 0-0.93359-0.625-1.75-1.5234-2z"/>
</svg>
