<?xml version="1.0" encoding="UTF-8"?>
<svg width="1200pt" height="1200pt" version="1.1" viewBox="0 0 1200 1200" xmlns="http://www.w3.org/2000/svg">
 <path d="m403.5 134.6c89.551 0 171.15 29.051 232.55 76.75-76.301 8.75-150.85 33.348-216.05 74.398-74.898 47.199-136.3 115.9-165.05 200.5-11.449 33.602-17.301 68.648-17.301 104.15 0 35.449 5.8516 70.5 17.301 104.1 7.8516 23.148 18.199 45.102 30.551 65.75-43.102 15.75-86.398 20.5-129.85 14.102 50.199-48.199 57.852-82.852 13.602-127.2-68.602-54-111.55-131.3-111.55-217.25 0-163.05 154.8-295.3 345.8-295.3zm296.75 98.25c-241.6 0-437.4 160.05-437.4 357.5 0 197.45 195.85 357.5 437.4 357.5 27.352 0 54.102-2.0508 80.102-6v0.050782c60.199 53 140.6 73.199 241.05 60.648-30.699-25.148-55.801-71.148-69.648-119.7 112.45-64.648 185.95-171.6 185.95-292.5-0.003906-197.45-195.85-357.5-437.45-357.5zm134.35 432.3 82.449 23.648c8.8008 2.5508 13.852 11.699 11.398 20.5v0.050781c-2.5508 8.75-11.75 13.852-20.5 11.398l-82.5-23.699c-8.75-2.5508-13.852-11.699-11.352-20.5 2.5039-8.8477 11.754-13.945 20.504-11.398zm6.0469-76.199h85.852c9.1484 0 16.551 7.3984 16.551 16.602 0 9.1484-7.3984 16.602-16.551 16.602h-85.852c-9.1484 0-16.551-7.4492-16.551-16.602-0.046875-9.1523 7.4023-16.602 16.551-16.602zm-15.199-74.898 82.5-23.648c8.75-2.5 17.949 2.6016 20.5 11.398 2.5 8.75-2.6016 18-11.398 20.5l-82.449 23.648c-8.8008 2.5-18-2.6016-20.5-11.398-2.5508-8.75 2.5977-17.949 11.348-20.5zm-338.2-20.602c-12.801 0-23.199 10.449-23.199 23.199v177.85c0 12.699 10.398 23.148 23.199 23.148h21.801c12.75 0 23.199-10.449 23.199-23.148v-177.85c0-12.75-10.398-23.199-23.199-23.199zm69.25 112.1v89c0 21.449 4.9492 33.602 35.699 49.449l144.6 73.449c55.301 28.199 55.051 17.148 55.051-35.199v-353.4c0-52.352 0.30078-63.398-55.051-35.199l-144.6 73.398c-30.75 15.852-35.699 28.051-35.699 49.5z" fill-rule="evenodd"/>
</svg>
