<?xml version="1.0" encoding="UTF-8"?>
<svg width="512pt" height="512pt" version="1.1" viewBox="0 0 512 512" xmlns="http://www.w3.org/2000/svg">
 <path d="m93.695 337.92h42.496c4.0977 0 8.1914-0.51172 11.777-2.0469 4.0977 6.1445 9.7266 11.266 15.359 14.848l73.727 47.105c5.6328 3.5859 10.754 5.1211 16.383 5.1211 10.754 0 22.527-8.1914 22.527-26.625l0.003906-241.16c0-18.434-11.777-26.625-22.527-26.625-5.1211 0-10.754 1.5352-16.383 5.1211l-73.727 47.105c-5.6328 3.5859-10.754 8.7031-15.359 14.848-3.5859-1.0234-7.6797-2.0469-11.777-2.0469h-42.496c-20.48 0-37.375 16.895-37.375 37.375v88.574c-0.003907 21.504 16.891 38.402 37.371 38.402zm80.383-159.23 73.727-47.105c3.0703-2.0469 4.6094-2.0469 5.1211-2.0469 1.5352 0 2.0469 3.5859 2.0469 6.1445v241.15c0 2.5586-0.51172 6.1445-2.0469 6.1445-0.51172 0-2.5586 0-5.1211-2.0469l-73.727-47.617c-5.1211-3.0703-9.7266-8.7031-12.801-15.359-3.0703-6.1445-5.1211-12.289-5.1211-17.922l0.003906-88.062c0-5.6328 2.0469-12.289 5.1211-17.922 3.0703-6.6562 7.6797-12.285 12.797-15.359zm-97.277 33.281c0-9.2148 7.6797-16.895 16.895-16.895h42.496 2.5586c-2.0469 5.6328-3.0703 11.266-3.0703 16.895v88.574c0 5.6328 1.0234 11.266 3.0703 16.895h-2.5586-42.496c-9.2148 0-16.895-7.6797-16.895-16.895z" fill="#9b9b9b"/>
 <path d="m326.14 323.59c2.0469 2.0469 4.6094 3.0703 7.168 3.0703s5.1211-1.0234 7.168-3.0703c37.375-37.375 37.375-97.793 0-134.66-4.0977-4.0977-10.238-4.0977-14.336 0-4.0977 4.0977-4.0977 10.238 0 14.336 29.184 29.184 29.184 76.801 0 105.98-4.0977 3.582-4.0977 10.238 0 14.336z" fill="#9b9b9b"/>
 <path d="m357.89 340.48c-4.0977 4.0977-4.0977 10.238 0 14.336 2.0469 2.0469 4.6094 3.0703 7.168 3.0703 2.5586 0 5.1211-1.0234 7.168-3.0703 54.785-54.785 54.785-143.36 0-198.14-4.0977-4.0977-10.238-4.0977-14.336 0-4.0977 4.0977-4.0977 10.238 0 14.336 46.594 47.105 46.594 122.88 0 169.47z" fill="#9b9b9b"/>
 <path d="m387.59 370.69c-4.0977 4.0977-4.0977 10.238 0 14.336 2.0469 2.0469 4.6094 3.0703 7.168 3.0703s5.1211-1.0234 7.168-3.0703c71.168-71.168 71.168-186.88 0-258.05-4.0977-4.0977-10.238-4.0977-14.336 0-4.0977 4.0977-4.0977 10.238 0 14.336 63.484 63.488 63.484 165.89 0 229.38z" fill="#9b9b9b"/>
</svg>
