<?xml version="1.0" encoding="UTF-8"?>
<svg width="1200pt" height="1200pt" version="1.1" viewBox="0 0 1200 1200" xmlns="http://www.w3.org/2000/svg">
 <path d="m313.1 60h573.8c139.2 0 253.1 113.9 253.1 253.15v573.8c0 139.2-113.85 253.1-253.1 253.1h-573.8c-139.2 0-253.15-113.85-253.15-253.1l-0.003906-573.85c0.050781-139.2 113.95-253.1 253.15-253.1zm490.05 592.6c-7.5508-2.1992-15.602 2.1992-17.75 9.8516-2.1992 7.6016 2.25 15.602 9.8516 17.75l71.551 20.5c7.6016 2.1992 15.648-2.25 17.801-9.8516 2.1484-7.6016-2.25-15.648-9.8516-17.801zm-7.8984-131.1c-7.6016 2.1992-12.051 10.199-9.8516 17.801 2.1992 7.6016 10.199 12.051 17.75 9.8516l71.602-20.5c7.6016-2.1992 12-10.199 9.8516-17.801-2.1992-7.6016-10.199-12.051-17.801-9.8516zm13.199 65c-7.8984 0-14.398 6.4492-14.398 14.398 0 7.9492 6.5 14.398 14.398 14.398h74.398c7.8984 0 14.398-6.4492 14.398-14.398 0-7.9492-6.5-14.398-14.398-14.398zm-306.6-82.852c-11.051 0-20.102 9.0508-20.102 20.102v154.25c0 11.051 9.0508 20.051 20.102 20.051h18.949c11.051 0 20.102-9.0508 20.102-20.051v-154.25c0-11.051-9.0508-20.102-20.102-20.102zm60.148 97.25v77.199c0 18.602 4.3008 29.148 30.949 42.898l125.45 63.648c47.949 24.449 47.699 14.898 47.699-30.5v-153.3l0.003906-52.848v-100.35c0-45.398 0.25-55-47.699-30.551l-125.45 63.648c-26.648 13.801-30.949 24.301-30.949 42.949zm-132.75-408.5c-165.7 0-300 114.7-300 256.2 0 74.5 37.301 141.65 96.75 188.4 38.398 38.5 31.75 68.551-11.801 110.35 37.699 5.5 75.25 1.4492 112.65-12.25-10.699-17.898-19.699-36.949-26.5-57.051-9.9492-29.148-15-59.551-15-90.352 0-30.75 5.1016-61.148 15-90.301 25.004-73.395 78.254-132.95 143.2-173.89 56.551-35.602 121.2-56.949 187.45-64.551-53.25-41.348-124.05-66.551-201.75-66.551zm257.4 85.203c-209.55 0-379.45 138.85-379.45 310.1 0 171.3 169.85 310.1 379.45 310.1 23.699 0 46.898-1.8008 69.449-5.1992h0.050782c52.199 45.949 121.9 63.5 209.05 52.602-26.602-21.801-48.352-61.648-60.352-103.75 97.5-56.102 161.3-148.85 161.3-253.75-0.046876-171.26-169.95-310.11-379.5-310.11z" fill-rule="evenodd"/>
</svg>
