<?xml version="1.0" encoding="UTF-8"?>
<svg width="512pt" height="512pt" version="1.1" viewBox="0 0 512 512" xmlns="http://www.w3.org/2000/svg">
 <path d="m257.02 65.816c22.242 0 42.441 9.1016 57.078 23.738 13.762 13.762 22.602 32.398 23.641 53.039v0.16016c0.058594 1.3008 0.10156 2.5781 0.10156 3.8789v86.18c0 1.3008-0.039063 2.6016-0.10156 3.8789v0.16016c-1.0391 20.641-9.8984 39.301-23.641 53.039-14.641 14.641-34.859 23.738-57.078 23.738-22.242 0-42.441-9.1016-57.078-23.738-13.762-13.762-22.602-32.398-23.641-53.039v-0.16016c-0.058593-1.3008-0.10156-2.5781-0.10156-3.8789v-86.18c0-1.3008 0.039062-2.6016 0.10156-3.8789v-0.16016c1.0391-20.641 9.8984-39.281 23.641-53.039 14.641-14.641 34.859-23.738 57.078-23.738zm-67.758 164.16h30.582c3.6016 0 6.5195 2.9219 6.5195 6.5195 0 3.6016-2.9219 6.5195-6.5195 6.5195h-29.82c2.2188 14.582 9.1406 27.66 19.141 37.66 12.281 12.281 29.219 19.918 47.859 19.918 18.641 0 35.559-7.6211 47.859-19.918 10-10 16.922-23.078 19.141-37.66h-29.82c-3.6016 0-6.5195-2.9219-6.5195-6.5195 0-3.6016 2.9219-6.5195 6.5195-6.5195h30.582v-33.699h-30.582c-3.6016 0-6.5195-2.9219-6.5195-6.5195 0-3.6016 2.9219-6.5195 6.5195-6.5195h30.582v-33.699h-30.582c-3.6016 0-6.5195-2.9219-6.5195-6.5195 0-3.6016 2.9219-6.5195 6.5195-6.5195h29.82c-2.2188-14.582-9.1406-27.66-19.141-37.66-12.281-12.281-29.219-19.918-47.859-19.918-18.621 0-35.559 7.6211-47.859 19.918-10 10-16.922 23.078-19.141 37.66h29.82c3.6016 0 6.5195 2.9219 6.5195 6.5195 0 3.6016-2.9219 6.5195-6.5195 6.5195h-30.582v33.699h30.582c3.6016 0 6.5195 2.9219 6.5195 6.5195 0 3.6016-2.9219 6.5195-6.5195 6.5195h-30.582zm78.781 174.82v-57.758c-3.6211 0.33984-7.3008 0.53906-11.02 0.53906s-7.3789-0.17969-11.02-0.53906v57.758c3.6211-0.12109 7.3008-0.17969 11.02-0.17969s7.3984 0.058593 11.02 0.17969zm6.3984 13.34c-0.14062 0-0.30078-0.019531-0.44141-0.019531-5.5-0.28125-11.18-0.42188-16.98-0.42188s-11.48 0.14063-16.98 0.42188c-0.14062 0.019531-0.30078 0.019531-0.44141 0.019531-19.68 1.0195-37.18 3.7383-50.602 7.6211-8.0195 2.3203-14.398 4.8203-18.602 7.3594h173.2c-4.1797-2.5391-10.559-5.0391-18.602-7.3594-13.422-3.8789-30.922-6.6016-50.602-7.6211zm-1.0586-84.961c-5.3203 0.87891-10.801 1.3203-16.359 1.3203-5.5586 0-11.039-0.46094-16.359-1.3203-0.058593-0.019531-0.12109-0.019531-0.17969-0.039062-20.781-3.4414-39.48-13.219-54.043-27.281-18.379-17.781-30.141-42.359-31.059-69.559-0.12109-3.6016-3.1211-6.4219-6.6992-6.3008-3.6016 0.12109-6.4219 3.1211-6.3008 6.6992 1.0391 30.738 14.301 58.5 35.039 78.539 15.141 14.641 34.262 25.16 55.52 29.762v60.477c-18.199 1.3008-34.539 4.0391-47.52 7.7812-20.66 5.9609-33.48 15.16-33.66 26.18v0.21875c0 3.6016 2.9219 6.5195 6.5195 6.5195h197.42c3.6016 0 6.5195-2.9219 6.5195-6.5195 0-11.121-12.859-20.379-33.66-26.379-12.961-3.7383-29.301-6.4805-47.52-7.7812v-60.477c21.262-4.5781 40.398-15.121 55.52-29.762 20.738-20.039 34-47.82 35.039-78.539 0.12109-3.6016-2.6992-6.6016-6.3008-6.6992-3.6016-0.12109-6.6016 2.6992-6.6992 6.3008-0.92187 27.199-12.68 51.777-31.059 69.559-14.559 14.059-33.262 23.859-54.043 27.281-0.058594 0.019531-0.12109 0.019531-0.17969 0.039062zm-145-142.46c0 3.6016-2.9219 6.5195-6.5195 6.5195-3.6016 0-6.5195-2.9219-6.5195-6.5195v-54.043c0-3.6016 2.9219-6.5195 6.5195-6.5195 3.6016 0 6.5195 2.9219 6.5195 6.5195zm-29.898 38.801c0 3.6016-2.9219 6.5195-6.5195 6.5195-3.6016 0-6.5195-2.9219-6.5195-6.5195v-54.043c0-3.6016 2.9219-6.5195 6.5195-6.5195 3.6016 0 6.5195 2.9219 6.5195 6.5195zm-29.922-38.801c0 3.6016-2.9219 6.5195-6.5195 6.5195-3.6016 0-6.5195-2.9219-6.5195-6.5195v-54.043c0-3.6016 2.9219-6.5195 6.5195-6.5195 3.6016 0 6.5195 2.9219 6.5195 6.5195zm-29.898 20.359c0 3.6016-2.9219 6.5195-6.5195 6.5195-3.6016 0-6.5195-2.9219-6.5195-6.5195v-54.043c0-3.6016 2.9219-6.5195 6.5195-6.5195 3.6016 0 6.5195 2.9219 6.5195 6.5195zm358.02-20.359c0 3.6016-2.9219 6.5195-6.5195 6.5195-3.6016 0-6.5195-2.9219-6.5195-6.5195v-54.043c0-3.6016 2.9219-6.5195 6.5195-6.5195 3.6016 0 6.5195 2.9219 6.5195 6.5195zm29.898 38.801c0 3.6016-2.9219 6.5195-6.5195 6.5195-3.6016 0-6.5195-2.9219-6.5195-6.5195v-54.043c0-3.6016 2.9219-6.5195 6.5195-6.5195 3.6016 0 6.5195 2.9219 6.5195 6.5195zm29.898-38.801c0 3.6016-2.9219 6.5195-6.5195 6.5195-3.6016 0-6.5195-2.9219-6.5195-6.5195v-54.043c0-3.6016 2.9219-6.5195 6.5195-6.5195 3.6016 0 6.5195 2.9219 6.5195 6.5195zm29.922 20.359c0 3.6016-2.9219 6.5195-6.5195 6.5195-3.6016 0-6.5195-2.9219-6.5195-6.5195v-54.043c0-3.6016 2.9219-6.5195 6.5195-6.5195 3.6016 0 6.5195 2.9219 6.5195 6.5195z" fill="#9b9b9b" fill-rule="evenodd"/>
</svg>
