<?xml version="1.0" encoding="UTF-8"?>
<svg width="512pt" height="512pt" version="1.1" viewBox="0 0 512 512" xmlns="http://www.w3.org/2000/svg">
 <path d="m119.97 306.38v-161.22c0-6.6836 2.6484-13.09 7.375-17.816 4.7266-4.7266 11.133-7.375 17.816-7.375h161.22c6.6797 0 13.086 2.6484 17.812 7.375 4.7266 4.7266 7.375 11.133 7.375 17.816v93.07l20.406-20.414c5.9023-5.8945 15.477-5.8945 21.371 0 4.3516 4.3555 9.9062 9.9062 14.258 14.258 5.8945 5.8945 5.8945 15.469 0 21.371l-56.035 56.035v57.355c0 13.914-11.273 25.188-25.188 25.188h-121.03c-0.89453-0.019532-1.7344-0.26953-2.457-0.70312-0.55469-0.33203-1.0586-0.77734-1.4609-1.3125l-60.457-80.609c-0.10156-0.14062-0.20312-0.28125-0.29297-0.42969-0.44531-0.74609-0.70703-1.6133-0.71484-2.543zm201.53-58.09c-0.007812-0.11328-0.007812-0.22266-0.007812-0.33203v-102.8c0-4.0117-1.5938-7.8516-4.4258-10.691-2.8398-2.832-6.6797-4.4258-10.688-4.4258h-161.22c-4.0117 0-7.8516 1.5938-10.691 4.4258-2.832 2.8398-4.4258 6.6797-4.4258 10.691v156.18h35.27c13.914 0 25.188 11.273 25.188 25.191v55.418h115.88c8.3398 0 15.113-6.7734 15.113-15.113v-47.277l-33.645 33.633-0.050781 0.058594c-0.74609 0.71875-1.6406 1.1602-2.5898 1.332l-35.559 7.1133c-1.6523 0.33203-3.3555-0.17969-4.543-1.3711-1.1992-1.1992-1.7148-2.9023-1.3828-4.5547l7.1133-35.559c0.17188-0.94531 0.61719-1.8438 1.332-2.5781l0.058594-0.070313zm-186.42 63.125 45.344 60.457v-45.34c0-8.3438-6.7734-15.117-15.113-15.117zm120 38.926 18.984-3.7969-15.184-15.188zm107.59-86.203-21.383-21.379-78.371 78.371 21.379 21.383zm-86.516-13.18h-100.76c-2.7812 0-5.0391 2.2578-5.0391 5.0391s2.2578 5.0391 5.0391 5.0391h100.76c2.7812 0 5.0391-2.2578 5.0391-5.0391s-2.2578-5.0391-5.0391-5.0391zm93.637 6.0586 10.691-10.691c1.9648-1.9648 1.9648-5.1602 0-7.125-4.3516-4.3516-9.9023-9.9062-14.258-14.246-1.9648-1.9766-5.1562-1.9766-7.1211 0l-10.684 10.68zm-93.637-46.363h-100.76c-2.7812 0-5.0391 2.2578-5.0391 5.0391s2.2578 5.0391 5.0391 5.0391h100.76c2.7812 0 5.0391-2.2578 5.0391-5.0391s-2.2578-5.0391-5.0391-5.0391zm-30.227-40.305h-70.535c-2.7812 0-5.0391 2.2578-5.0391 5.0391s2.2578 5.0391 5.0391 5.0391h70.535c2.7812 0 5.0352-2.2578 5.0352-5.0391s-2.2539-5.0391-5.0352-5.0391z" fill="#9b9b9b" fill-rule="evenodd"/>
</svg>
