<?xml version="1.0" encoding="UTF-8"?>
<svg width="128pt" height="128pt" version="1.1" viewBox="0 0 128 128" xmlns="http://www.w3.org/2000/svg">
 <path d="m54.801 18c-16 2.8008-29.199 16-33.602 33.199-4.8008 20 3.1992 40.398 19.199 50l-8.7969 2.8008c-2 0.80078-3.1992 2.8008-2.8008 5.1992 0.39844 1.6016 2 2.8008 4 2.8008h1.1992l19.199-6c0.39844 0 0.80078-0.39844 1.1992-0.80078h0.39844c0.39844-0.39844 0.80078-0.80078 0.80078-1.1992v-0.39844c0-0.39844 0.39844-0.80078 0.39844-1.1992v-0.80078l-2.3984-21.199c-0.39844-2-2.3984-3.6016-4.3984-3.6016-2 0.39844-3.6016 2.3984-3.6016 4.3984l1.6016 14.801c-14.398-7.1992-22-25.199-17.602-42.801 3.6016-14 14-24.801 27.199-27.199 2-0.39844 3.6016-2.3984 3.1992-4.8008-0.79688-2-2.7969-3.5977-5.1953-3.1992z"/>
 <path d="m87.602 26.801 8.7969-2.8008c2-0.80078 3.1992-2.8008 2.8008-5.1992-0.80078-2-2.8008-3.1992-5.1992-2.8008l-19.199 6c-0.39844 0-0.80078 0.39844-1.1992 0.80078-0.39844 0.39844-0.80078 0.80078-0.80078 1.1992v0.39844c0 0.39844-0.39844 0.80078-0.39844 1.1992v0.80078l2.3984 21.199c0.39844 2 2.3984 3.6016 4.3984 3.6016 2-0.39844 3.6016-2.3984 3.6016-4.3984l-1.6016-14.801c14.398 7.1992 22 25.199 17.602 42.801-3.6016 14-14 24.801-27.199 27.199-2 0.39844-3.6016 2.3984-3.1992 4.8008 0.39844 2 2 3.1992 4 3.1992h0.80078c16-2.8008 29.199-16 33.602-33.199 4.7969-20-3.6055-40.402-19.203-50z"/>
</svg>
