<?xml version="1.0" encoding="UTF-8"?>
<svg width="128pt" height="128pt" version="1.1" viewBox="0 0 128 128" xmlns="http://www.w3.org/2000/svg">
 <path d="m49 88c-4.4492 0-8.4609 2.6797-10.164 6.7891-1.6992 4.1094-0.76172 8.8398 2.3867 11.988 3.1484 3.1445 7.8789 4.0859 11.988 2.3867 4.1094-1.7031 6.7891-5.7148 6.7891-10.164 0-6.0742-4.9258-11-11-11zm6.3984 9.8008-4.8008 4.8008c-0.76172 0.69922-1.7695 1.0586-2.8008 1-1.0312 0.058594-2.0391-0.30078-2.8008-1l-2.3984-2.6016c-0.46484-0.35156-0.75391-0.87891-0.79688-1.4609-0.039062-0.57422 0.17188-1.1445 0.57812-1.5547 0.41016-0.41016 0.98047-0.62109 1.5547-0.57812 0.57812 0.039062 1.1094 0.32812 1.4609 0.79688l2.3984 2.6016 4.8008-5c0.83594-0.60156 1.9648-0.60156 2.8008 0 0.78906 0.84375 0.78906 2.1562 0 3zm-6.3984-43.801c-4.4492 0-8.4609 2.6797-10.164 6.7891-1.6992 4.1094-0.76172 8.8398 2.3867 11.988 3.1484 3.1445 7.8789 4.0859 11.988 2.3867 4.1094-1.7031 6.7891-5.7148 6.7891-10.164 0-6.0742-4.9258-11-11-11zm6.3984 9.8008-4.8008 4.8008c-0.76172 0.69922-1.7695 1.0586-2.8008 1-1.0312 0.058594-2.0391-0.30078-2.8008-1l-2.3984-2.6016c-0.46484-0.35156-0.75391-0.87891-0.79688-1.4609-0.039062-0.57422 0.17188-1.1445 0.57812-1.5547 0.41016-0.41016 0.98047-0.62109 1.5547-0.57812 0.57812 0.039062 1.1094 0.32812 1.4609 0.79688l2.3984 2.6016 4.8008-5c0.83594-0.60156 1.9648-0.60156 2.8008 0 0.78906 0.84375 0.78906 2.1562 0 3zm42.602-57.801h-68c-1.6094-0.054688-3.1641 0.55859-4.3047 1.6953-1.1367 1.1406-1.75 2.6953-1.6953 4.3047v104c-0.054688 1.6094 0.55859 3.1641 1.6953 4.3047 1.1406 1.1367 2.6953 1.75 4.3047 1.6953h68c1.6094 0.054688 3.1641-0.55859 4.3047-1.6953 1.1367-1.1406 1.75-2.6953 1.6953-4.3047v-104c0.054688-1.6094-0.55859-3.1641-1.6953-4.3047-1.1406-1.1367-2.6953-1.75-4.3047-1.6953zm-26 20h7.6016c1.1055 0 2 0.89453 2 2s-0.89453 2-2 2h-7.6016c-1.1055 0-2-0.89453-2-2s0.89453-2 2-2zm-23 88c-6.0664 0-11.535-3.6562-13.859-9.2617-2.3203-5.6055-1.0352-12.055 3.2539-16.344 4.2891-4.2891 10.738-5.5742 16.344-3.2539 5.6055 2.3242 9.2617 7.7969 9.2617 13.859-0.10938 8.2383-6.7617 14.891-15 15zm0-34c-6.0664 0-11.535-3.6562-13.859-9.2617-2.3203-5.6055-1.0352-12.055 3.2539-16.344 4.2891-4.2891 10.738-5.5742 16.344-3.2539 5.6055 2.3242 9.2617 7.7969 9.2617 13.859-0.10938 8.2383-6.7617 14.891-15 15zm0-34c-6.0664 0-11.535-3.6562-13.859-9.2617-2.3203-5.6055-1.0352-12.055 3.2539-16.344 4.2891-4.2891 10.738-5.5742 16.344-3.2539 5.6055 2.3242 9.2617 7.7969 9.2617 13.859-0.10938 8.2383-6.7617 14.891-15 15zm37 60h-14c-1.1055 0-2-0.89453-2-2s0.89453-2 2-2h14c1.1055 0 2 0.89453 2 2s-0.89453 2-2 2zm-16-10c-0.066406-0.55078 0.125-1.0938 0.51562-1.4844s0.93359-0.57812 1.4844-0.51562h7.6016c1.1055 0 2 0.89453 2 2s-0.89453 2-2 2h-7.6016c-0.55078 0.066406-1.0938-0.125-1.4844-0.51562s-0.57812-0.93359-0.51562-1.4844zm16-24h-14c-1.1055 0-2-0.89453-2-2s0.89453-2 2-2h14c1.1055 0 2 0.89453 2 2s-0.89453 2-2 2zm-16-10c-0.066406-0.55078 0.125-1.0938 0.51562-1.4844s0.93359-0.57812 1.4844-0.51562h7.6016c1.1055 0 2 0.89453 2 2s-0.89453 2-2 2h-7.6016c-0.55078 0.066406-1.0938-0.125-1.4844-0.51562s-0.57812-0.93359-0.51562-1.4844zm16-24h-14c-1.1055 0-2-0.89453-2-2s0.89453-2 2-2h14c1.1055 0 2 0.89453 2 2s-0.89453 2-2 2zm-37-18c-4.4492 0-8.4609 2.6797-10.164 6.7891-1.6992 4.1094-0.76172 8.8398 2.3867 11.988 3.1484 3.1445 7.8789 4.0859 11.988 2.3867 4.1094-1.7031 6.7891-5.7148 6.7891-10.164 0-6.0742-4.9258-11-11-11zm6.3984 9.8008-4.8008 4.8008c-0.76172 0.69922-1.7695 1.0586-2.8008 1-1.0312 0.058594-2.0391-0.30078-2.8008-1l-2.3984-2.6016c-0.59375-0.79688-0.51953-1.9102 0.18359-2.6133s1.8203-0.78125 2.6133-0.18359l2.3984 2.6016 4.8008-5c0.83594-0.60156 1.9648-0.60156 2.8008 0 0.78906 0.84375 0.78906 2.1562 0 3z"/>
</svg>
