<?xml version="1.0" encoding="UTF-8"?>
<svg width="128pt" height="128pt" version="1.1" viewBox="0 0 128 128" xmlns="http://www.w3.org/2000/svg">
 <path d="m66 98v20h30c1.1055 0 2 0.89453 2 2s-0.89453 2-2 2h-64c-1.1055 0-2-0.89453-2-2s0.89453-2 2-2h30v-20h-1.5586c-8.2539-0.003906-16.176-3.2891-22.016-9.125-5.8359-5.8398-9.1211-13.762-9.125-22.016 0-1.1055 0.89453-2 2-2s2 0.89453 2 2c0.003907 7.1953 2.8633 14.094 7.9531 19.184 5.0898 5.0898 11.988 7.9492 19.184 7.9531h7.1211c7.1953-0.003906 14.094-2.8633 19.184-7.9531 5.0898-5.0898 7.9492-11.988 7.9531-19.184 0-1.1055 0.89453-2 2-2 1.1055 0 2 0.89453 2 2-0.003906 8.2539-3.2891 16.176-9.125 22.016-5.8398 5.8359-13.762 9.1211-22.016 9.125zm-26-38v-30c0-8.5742 4.5742-16.496 12-20.785 7.4258-4.2852 16.574-4.2852 24 0 7.4258 4.2891 12 12.211 12 20.785v30c0 8.5742-4.5742 16.496-12 20.785-7.4258 4.2852-16.574 4.2852-24 0-7.4258-4.2891-12-12.211-12-20.785zm14-34c0 0.53125 0.21094 1.0391 0.58594 1.4141s0.88672 0.58594 1.4141 0.58594h16c1.1055 0 2-0.89453 2-2s-0.89453-2-2-2h-16c-1.1055 0-2 0.89453-2 2zm0 10c0 0.53125 0.21094 1.0391 0.58594 1.4141s0.88672 0.58594 1.4141 0.58594h16c1.1055 0 2-0.89453 2-2s-0.89453-2-2-2h-16c-1.1055 0-2 0.89453-2 2zm0 10c0 0.53125 0.21094 1.0391 0.58594 1.4141s0.88672 0.58594 1.4141 0.58594h16c1.1055 0 2-0.89453 2-2s-0.89453-2-2-2h-16c-1.1055 0-2 0.89453-2 2zm0 10c0 0.53125 0.21094 1.0391 0.58594 1.4141s0.88672 0.58594 1.4141 0.58594h16c1.1055 0 2-0.89453 2-2s-0.89453-2-2-2h-16c-1.1055 0-2 0.89453-2 2zm0 10c0 0.53125 0.21094 1.0391 0.58594 1.4141s0.88672 0.58594 1.4141 0.58594h16c1.1055 0 2-0.89453 2-2s-0.89453-2-2-2h-16c-1.1055 0-2 0.89453-2 2zm42.219-46.719c-0.77344 0.78125-0.77344 2.0391 0 2.8203 2.2617 2.3789 3.5547 5.5195 3.6211 8.8008 0.19531 3.2148-0.80078 6.3945-2.8008 8.9219-0.49609 0.59375-0.60547 1.4258-0.27344 2.1289 0.32812 0.70312 1.0391 1.1484 1.8164 1.1484 0.59375 0 1.1602-0.26562 1.5391-0.71875 2.6211-3.2969 3.9453-7.4336 3.7188-11.641-0.10547-4.2969-1.8242-8.3945-4.8203-11.48-0.78516-0.75391-2.0312-0.75-2.8008 0.019531zm10.898-6c-0.71875-0.67188-1.8164-0.71875-2.5898-0.12109-0.77344 0.60547-1 1.6797-0.53125 2.5391 3.1133 4.3359 4.8633 9.5039 5.0195 14.84 0.26562 5.2617-1.0234 10.484-3.6992 15.02-0.28125 0.45312-0.36328 1.0039-0.23438 1.5195 0.125 0.51953 0.45312 0.96484 0.91406 1.2383 0.94141 0.57031 2.1641 0.27344 2.7383-0.66016 3.0898-5.2148 4.5859-11.227 4.3008-17.281-0.22656-6.1562-2.2891-12.105-5.9219-17.082zm14.879 16.719c-0.25391-8.0547-2.7031-15.891-7.0781-22.66-0.61328-0.92188-1.8594-1.1758-2.7812-0.55859-0.92188 0.61328-1.1758 1.8594-0.55859 2.7812 3.9805 6.1484 6.1992 13.273 6.4219 20.602 0.36328 7.2617-1.2383 14.48-4.6406 20.898-0.51953 0.96484-0.16016 2.1719 0.80078 2.6992 0.28906 0.17578 0.62109 0.26562 0.96094 0.26172 0.73438 0 1.4102-0.39453 1.7617-1.0391 3.75-7.0586 5.5156-15 5.1211-22.98zm-91.34 12.641c0.41016-0.33984 0.66406-0.82422 0.71484-1.3555 0.050781-0.53125-0.11328-1.0547-0.45312-1.4648-2-2.5234-2.9961-5.7031-2.8008-8.9219 0.066406-3.2812 1.3594-6.4219 3.6211-8.8008 0.77344-0.78125 0.77344-2.0391 0-2.8203-0.375-0.37891-0.88672-0.58984-1.4219-0.58984s-1.0469 0.21094-1.4219 0.58984c-2.9961 3.0859-4.7148 7.1836-4.8203 11.48-0.22656 4.2031 1.1016 8.3438 3.7188 11.641 0.37891 0.45312 0.94531 0.71875 1.5391 0.71875 0.48438 0.003906 0.94922-0.16406 1.3203-0.48047zm-6.6602-26.941c0.66406-0.88672 0.48438-2.1367-0.39844-2.8008-0.88672-0.66406-2.1367-0.48438-2.8008 0.39844-3.5938 4.9844-5.625 10.934-5.8203 17.082-0.28516 6.0547 1.2109 12.066 4.3008 17.281 0.57422 0.93359 1.8008 1.2305 2.7383 0.66016 0.45312-0.27344 0.78125-0.72656 0.90625-1.2461 0.125-0.51562 0.035156-1.0586-0.24609-1.5156-2.6758-4.5352-3.9648-9.7617-3.6992-15.02 0.15625-5.3359 1.9062-10.504 5.0195-14.84zm-14 14.461c0.21875-7.3242 2.4414-14.449 6.4219-20.602 0.61328-0.92188 0.35938-2.1641-0.55859-2.7812-0.92188-0.61328-2.1641-0.35938-2.7812 0.55859-4.375 6.7695-6.8242 14.605-7.0781 22.66-0.39453 7.9805 1.3711 15.922 5.1211 22.98 0.35156 0.64453 1.0234 1.0391 1.7617 1.0391 0.33984 0.003906 0.67188-0.085937 0.96094-0.26172 0.96094-0.53125 1.3203-1.7344 0.80078-2.6992-3.3984-6.4219-5.0039-13.641-4.6406-20.898z"/>
</svg>
