<?xml version="1.0" encoding="UTF-8"?>
<svg width="128pt" height="128pt" version="1.1" viewBox="0 0 128 128" xmlns="http://www.w3.org/2000/svg">
 <path d="m79.121 98.961c-1.2617 0.56641-2.6211 0.89062-4 0.96094-0.23828 0.019531-0.48047 0.019531-0.71875 0h-20.879c-0.23828 0.019531-0.48047 0.019531-0.71875 0-1.3789-0.070313-2.7383-0.39453-4-0.96094-4.0391-1.8281-6.6367-5.8516-6.6406-10.281 0-2.1641 0.42188-4.3164 1.2383-6.3203 0.51172-1.2695 1.1836-2.4648 2-3.5586 2.7969-3.8203 7.0703-6.2891 11.781-6.8008-1.5-1.2188-2.6406-2.8242-3.3008-4.6406-0.43359-1.1641-0.66016-2.3945-0.66016-3.6406 0.003906-4.2617 2.5234-8.1133 6.4219-9.8398 2.9102-1.3594 6.2852-1.3164 9.1602 0.12109 3.6719 1.8008 6 5.5312 6 9.6211 0.003906 1.1641-0.19141 2.3203-0.57813 3.4219-0.64453 1.9414-1.8203 3.6602-3.3984 4.9609 4.6992 0.54688 8.9531 3.0391 11.719 6.8789 0.81641 1.0938 1.4883 2.2891 2 3.5586 0.82031 2.0039 1.2383 4.1562 1.2383 6.3203-0.039062 4.4102-2.6406 8.3906-6.6602 10.199zm-0.33984-35.32c0.015625 1.6211-0.25 3.2305-0.78125 4.7617 0.58594 0.11328 1.1836 0.16406 1.7812 0.16016h5.8008c0.59375-5.9062 4.6719-10.887 10.344-12.629 5.6758-1.7461 11.84 0.078125 15.656 4.6289 0.34375-1.1016 0.51953-2.2461 0.51953-3.3984-0.015624-8.5586-6.4336-15.754-14.941-16.738 3.5312-2.8867 4.8633-7.6758 3.3359-11.969-1.5312-4.2891-5.5938-7.1602-10.156-7.1602-4.5586 0-8.625 2.8711-10.156 7.1602-1.5312 4.2969-0.19531 9.0859 3.3359 11.969-5.9102 0.62891-11.051 4.3281-13.52 9.7383 5.3203 2.3789 8.7539 7.6562 8.7812 13.48zm-51.02-8.1992c7.5195 0.003906 13.836 5.6484 14.68 13.121h6.2812c0.44531 0.03125 0.89453 0.03125 1.3398 0-0.55859-1.5508-0.84375-3.1914-0.83984-4.8398-0.019531-5.9961 3.5703-11.406 9.1016-13.719-2.5039-5.2188-7.5117-8.7891-13.258-9.4609 3.5312-2.8867 4.8633-7.6758 3.3359-11.969-1.5312-4.2891-5.5938-7.1602-10.156-7.1602-4.5586 0-8.625 2.8711-10.156 7.1602-1.5312 4.2969-0.19531 9.0859 3.3359 11.969-8.5039 0.98438-14.926 8.1797-14.941 16.738-0.003906 1.0156 0.14062 2.0234 0.42188 3 2.7695-3.0859 6.7148-4.8438 10.859-4.8398zm79.301 23.078c2.7305-2.2461 4.1836-5.6914 3.8906-9.2148-0.30078-3.5234-2.3047-6.6758-5.375-8.4336-3.0703-1.7539-6.8047-1.8945-9.9961-0.36328-3.1914 1.5234-5.4258 4.5234-5.9805 8.0156-0.10156 0.55469-0.14453 1.1133-0.14062 1.6797 0.019531 3.2188 1.4883 6.2617 4 8.2812-1.9062 0.21484-3.7617 0.76562-5.4805 1.6211 1.2031 2.6836 1.8242 5.5938 1.8203 8.5391-0.011719 5.8789-3.3867 11.23-8.6797 13.781 2.1367 2.5938 5.3203 4.1016 8.6797 4.1016h20.922c6.2148-0.011719 11.262-5.0469 11.281-11.262-0.015625-8.5586-6.4336-15.754-14.941-16.738zm-68.82 10.16c-0.023438-2.9414 0.57422-5.8516 1.7617-8.5391-1.7188-0.85547-3.5742-1.4062-5.4805-1.6211 2.5117-2.0195 3.9805-5.0586 4-8.2812 0.003906-0.56641-0.039063-1.125-0.14063-1.6797-0.68359-4.3711-3.9688-7.8789-8.2852-8.8516-4.3164-0.96875-8.7852 0.79688-11.273 4.4492-1.1953 1.7734-1.8398 3.8594-1.8594 6 0.019531 3.2188 1.4883 6.2617 4 8.2812-8.5469 0.98047-14.984 8.2188-14.961 16.82 0 6.2344 5.0469 11.289 11.281 11.301h20.961c3.3594 0 6.5469-1.5039 8.6797-4.1016-5.2969-2.5508-8.6719-7.8984-8.6797-13.781z"/>
</svg>
