<?xml version="1.0" encoding="UTF-8"?>
<svg width="128pt" height="128pt" version="1.1" viewBox="0 0 128 128" xmlns="http://www.w3.org/2000/svg">
 <path d="m111.6 90.398c-8 12.801-22.398 20.801-37.602 21.602h-3.6016c-14.801 0-28.801-6-39.199-16.801-5.6016-5.6016-10-12.801-12.398-20.398-2.3984-7.6016-3.1992-15.602-2-23.602 2-15.602 12-28.801 26.398-34.801 2-0.80078 4.3984 0.39844 5.1992 2.3984 0.39844 1.1992 0.39844 2.3984-0.39844 3.6016-6 8.4023-8.8008 19.203-8 29.602 0.80078 8.8008 4.8008 17.199 11.199 23.602 6.3984 6.3984 14.801 10.801 24 12.398 10.801 2 21.602 0.80078 31.602-3.6016 2-0.80078 4.3984 0 5.1992 2.3984 0 1.2031 0 2.4023-0.39844 3.6016zm-45.602-37.598-2 12.801c-0.39844 2 1.1992 4.3984 3.1992 4.8008 0.80078 0 1.6016 0 2.3984-0.39844l11.199-6 11.602 6c2 1.1992 4.3984 0.39844 5.1992-1.6016 0.39844-0.80078 0.39844-1.6016 0.39844-2.3984l-2-12.801 9.1992-9.1992c1.6016-1.6016 1.6016-4 0-5.6016-0.80078-0.80078-1.6016-1.1992-2.3984-1.1992l-12.801-2-5.6016-12c-0.80078-1.1992-2-2.3984-3.6016-2.3984-1.6016 0-2.8008 0.80078-3.6016 2.3984l-5.1914 11.996-12.801 2c-2.3984 0-4 2-3.6016 4.3984 0 1.1992 0.39844 2 1.1992 2.8008z"/>
</svg>
