<?xml version="1.0" encoding="UTF-8"?>
<svg width="128pt" height="128pt" version="1.1" viewBox="0 0 128 128" xmlns="http://www.w3.org/2000/svg">
 <path d="m44 48c-1.1016 0-2 0.89844-2 2s0.89844 2 2 2 2-0.89844 2-2-0.89844-2-2-2zm20 0c-1.1016 0-2 0.89844-2 2s0.89844 2 2 2 2-0.89844 2-2-0.89844-2-2-2zm20 0c-1.1016 0-2 0.89844-2 2s0.89844 2 2 2 2-0.89844 2-2-0.89844-2-2-2zm-20 0c-1.1016 0-2 0.89844-2 2s0.89844 2 2 2 2-0.89844 2-2-0.89844-2-2-2zm20 0c-1.1016 0-2 0.89844-2 2s0.89844 2 2 2 2-0.89844 2-2-0.89844-2-2-2zm0 0c-1.1016 0-2 0.89844-2 2s0.89844 2 2 2 2-0.89844 2-2-0.89844-2-2-2zm-20 0c-1.1016 0-2 0.89844-2 2s0.89844 2 2 2 2-0.89844 2-2-0.89844-2-2-2zm57.52-1.0586c-0.98047-1.418-1.2188-3.2383-0.64062-4.8594 1.5195-4.1992-0.16016-8.8984-4.0195-11.16l-1.7617-1.0391c-1.6406-0.96094-2.8203-2.5781-3.2617-4.4414-0.96094-4.2188-4.3203-7.4609-8.5586-8.3008l-3.3008-0.66016c-2.0781-0.40234-3.9766-1.4609-5.418-3.0391l-0.58203-0.62109c-3.0195-3.2617-7.3984-4.918-11.82-4.4414l-3.8594 0.42188c-1.7969 0.19922-3.5977-0.10156-5.2383-0.85938l-3.2188-1.4609c-3.7188-1.6992-7.9609-1.6992-11.68 0l-3.2188 1.4609c-1.6406 0.75781-3.4414 1.0586-5.2422 0.85938l-3.8594-0.42188c-4.418-0.48047-8.8008 1.1797-11.82 4.4414l-0.58203 0.62109c-1.4375 1.5781-3.3359 2.6367-5.418 3.0391l-3.3008 0.66016c-4.2383 0.83984-7.6016 4.0781-8.5586 8.3008-0.44141 1.8594-1.6211 3.4805-3.2617 4.4414l-1.7578 1.0391c-3.8594 2.2617-5.5391 6.9609-4.0195 11.16 0.57812 1.6211 0.33984 3.4414-0.64062 4.8594-2.7188 3.8789-2.1602 9.2383 1.3984 12.422l0.62109 0.55859c1.3203 1.1797 2.0195 2.918 1.8984 4.6797-0.26172 4.3008 2.3203 8.2812 6.3594 9.8008l2.6406 0.96094c1.9805 0.73828 3.6406 2.1797 4.6602 4.0391 2.1406 3.9414 6.1992 6.4609 10.68 6.6406l3.6797 0.16016c1.918 0.082031 3.7812 0.71875 5.3398 1.8203l2 1.418c3.3984 2.3984 7.6992 3.1602 11.719 2.082l3.9219-1.0391c1.6992-0.46094 3.5-0.46094 5.1992 0l3.9219 1.0391c4.0195 1.0781 8.3203 0.32031 11.719-2.082l2-1.418c1.5586-1.1016 3.4219-1.7383 5.3398-1.8203l3.6797-0.16016c4.4805-0.17969 8.5391-2.6992 10.68-6.6406 1.0195-1.8594 2.6797-3.3008 4.6602-4.0391l2.6406-0.96094c4.0391-1.5195 6.6211-5.5 6.3594-9.8008-0.12109-1.7617 0.58203-3.5 1.8984-4.6797l0.62109-0.55859c3.5625-3.1836 4.1211-8.543 1.4023-12.422zm-77.52 9.0586c-3.3203 0-6-2.6797-6-6s2.6797-6 6-6 6 2.6797 6 6-2.6797 6-6 6zm20 0c-3.3203 0-6-2.6797-6-6s2.6797-6 6-6 6 2.6797 6 6-2.6797 6-6 6zm20 0c-3.3203 0-6-2.6797-6-6s2.6797-6 6-6 6 2.6797 6 6-2.6797 6-6 6zm0-8c-1.1016 0-2 0.89844-2 2s0.89844 2 2 2 2-0.89844 2-2-0.89844-2-2-2zm-20 0c-1.1016 0-2 0.89844-2 2s0.89844 2 2 2 2-0.89844 2-2-0.89844-2-2-2zm-20 0c-1.1016 0-2 0.89844-2 2s0.89844 2 2 2 2-0.89844 2-2-0.89844-2-2-2zm0 0c-1.1016 0-2 0.89844-2 2s0.89844 2 2 2 2-0.89844 2-2-0.89844-2-2-2zm20 0c-1.1016 0-2 0.89844-2 2s0.89844 2 2 2 2-0.89844 2-2-0.89844-2-2-2zm20 0c-1.1016 0-2 0.89844-2 2s0.89844 2 2 2 2-0.89844 2-2-0.89844-2-2-2zm-62 42c-5.5195 0-10 4.4805-10 10s4.4805 10 10 10 10-4.4805 10-10-4.4805-10-10-10zm-12 22c-3.3203 0-6 2.6797-6 6s2.6797 6 6 6 6-2.6797 6-6-2.6797-6-6-6z"/>
</svg>
