<?xml version="1.0" encoding="UTF-8"?>
<svg width="128pt" height="128pt" version="1.1" viewBox="0 0 128 128" xmlns="http://www.w3.org/2000/svg">
 <path d="m48.109 115.16v-29.566c0-1.5039 0.60938-2.8711 1.6016-3.8555l0.003906 0.003906c0.99609-0.98828 2.3555-1.6055 3.8516-1.6055h20.875c1.4883 0 2.8555 0.61328 3.8516 1.6055l0.003906-0.003906c0.98438 0.98437 1.6016 2.3516 1.6016 3.8555v29.57h18.781c3.4531 0 6.25-2.7969 6.25-6.25v-48.051h11.469c2.2891 0 3.3359-2.8555 1.5859-4.3359l-49.945-42.215c-2.3516-1.9844-5.7266-1.9844-8.0742 0l-49.941 42.211c-1.75 1.4766-0.70313 4.3359 1.5859 4.3359h11.469v48.051c0 3.4531 2.7969 6.25 6.25 6.25zm25.641 0h-19.496v-28.879h19.496z" fill-rule="evenodd"/>
</svg>
