<?xml version="1.0" encoding="UTF-8"?>
<svg width="128pt" height="128pt" version="1.1" viewBox="0 0 128 128" xmlns="http://www.w3.org/2000/svg">
 <path d="m104.8 98.902h2.8398c6.2969 0.003906 11.73 4.4062 13.039 10.559h-18.68c0.046875-0.48438 0.046875-0.97656 0-1.4609 0.011719-2.8555-0.67578-5.6719-2-8.1992 1.5234-0.60938 3.1562-0.91406 4.8008-0.89844zm1.4219 0c3.1289 0 5.9531-1.8867 7.1484-4.7812 1.1992-2.8906 0.53516-6.2188-1.6758-8.4336-2.2148-2.2109-5.5469-2.875-8.4336-1.6758-2.8945 1.1953-4.7812 4.0195-4.7812 7.1484 0 4.2734 3.4648 7.7383 7.7383 7.7383zm-23.219-4.2188h-1.4219c-7.3594 0.011718-13.324 5.9609-13.359 13.32 0 0.48047 0.058594 0.95312 0.17969 1.4219h29.199c0.12109-0.46484 0.17969-0.94141 0.17969-1.4219-0.011719-7.375-5.9844-13.352-13.359-13.359zm7.7383-7.7383c0-3.1289-1.8867-5.9531-4.7812-7.1484-2.8906-1.1992-6.2188-0.53516-8.4336 1.6758-2.2109 2.2148-2.875 5.5469-1.6758 8.4336 1.1953 2.8945 4.0195 4.7812 7.1484 4.7812 4.2695-0.011719 7.7305-3.4688 7.7383-7.7383zm29.441 28.461c-0.79688-1.0781-2.0586-1.7148-3.3984-1.7188h-67.559c-2.3281 0-4.2188 1.8906-4.2188 4.2188s1.8906 4.2188 4.2188 4.2188h67.559c1.5898 0 3.0469-0.89453 3.7656-2.3164s0.57812-3.125-0.36328-4.4062zm-74.859-6h18.781c-0.074219-0.46484-0.10547-0.92969-0.10156-1.3984-0.011718-2.8555 0.67578-5.6719 2-8.1992-1.5352-0.62891-3.1797-0.94531-4.8398-0.94141h-2.8008c-6.3047 0.003906-11.746 4.4297-13.039 10.602zm22.199-18.301c0-3.1289-1.8867-5.9531-4.7812-7.1484-2.8906-1.1992-6.2188-0.53516-8.4336 1.6758-2.2109 2.2148-2.875 5.5469-1.6758 8.4336 1.1953 2.8945 4.0195 4.7812 7.1484 4.7812 4.2461-0.011718 7.6953-3.4336 7.7383-7.6797zm1.6992-33.281h17.781v-38h-44.301c-0.625 3.0859-2.2266 5.8906-4.5586 8 4.3086 0.23047 8.2344 2.5664 10.5 6.2383l7.7383 7.7383h6l4.1797-6.1602c0.93359-1.3555 2.3867-2.2656 4.0117-2.5156 1.6289-0.25391 3.2852 0.17188 4.5898 1.1758 2.5312 2.0547 3.0703 5.6992 1.2383 8.3984l-5.2812 7.7812c0.28516 2.2109-0.16406 4.4492-1.2812 6.3789-0.17578 0.35938-0.38672 0.69922-0.62109 1.0195zm-41.219-29.941c4.4492 0 8.4609-2.6797 10.164-6.7891 1.6992-4.1094 0.76172-8.8398-2.3867-11.988-3.1484-3.1445-7.8789-4.0859-11.988-2.3867-4.1094 1.7031-6.7891 5.7148-6.7891 10.164 0.011719 6.0703 4.9297 10.988 11 11zm63 36c0-0.53125-0.21094-1.0391-0.58594-1.4141s-0.88672-0.58594-1.4141-0.58594h-38v4h38c1.1055 0 2-0.89453 2-2zm-2-48c1.1055 0 2-0.89453 2-2 0-1.1055-0.89453-2-2-2h-46.879c0.48438 1.2812 0.76562 2.6289 0.82031 4zm-42 50v-8h14.199c2.1133 0.039063 4.0859-1.0586 5.1602-2.8789 0.96094-1.5703 1.1445-3.4961 0.5-5.2188l6.2617-9.2188c0.66016-0.96875 0.46484-2.2812-0.44141-3.0195-0.42188-0.33984-0.96094-0.48438-1.4961-0.39453-0.53125 0.085937-1 0.39844-1.2852 0.85547l-5.7812 8.5195c-0.74609-0.41406-1.5859-0.63672-2.4414-0.64062h-6.9609l-9.2383-9.2617c-1.625-2.8984-4.6758-4.7031-8-4.7383h-20.559c-2.7617 0.10547-5.3633 1.3008-7.2383 3.3242-1.875 2.0312-2.8711 4.7148-2.7617 7.4766v15.52c0 4.2383 3.4414 7.6797 7.6797 7.6797h0.39844v20.879c-0.046875 3.8633 3.0547 7.0352 6.9219 7.0781 3.8633 0.046875 7.0352-3.0547 7.0781-6.9219v-17.039c0-1.1055 0.89453-2 2-2s2 0.89453 2 2v2.1211l-0.21875 14.48c0 0.62109 0.074219 1.2344 0.21875 1.8398 0.58594 3.6562 3.9336 6.2109 7.6133 5.8047 3.6797-0.41016 6.3906-3.6289 6.1641-7.3242z"/>
</svg>
